<?xml version="1.0" standalone="no"?>
<!DOCTYPE svg PUBLIC "-//W3C//DTD SVG 20010904//EN" "http://www.w3.org/TR/2001/REC-SVG-20010904/DTD/svg10.dtd">
<svg version="1.0" xmlns="http://www.w3.org/2000/svg"
 width="635.000000pt" height="635.000000pt" viewBox="0 0 635.000000 635.000000"
 preserveAspectRatio="xMidYMid meet">
<metadata>
Created by potrace 1.14, written by Peter Selinger 2001-2017
</metadata>
<g transform="translate(0.000000,635.000000) scale(0.100000,-0.100000)"
fill="#000000" stroke="none">
<path d="M2955 5790 c-3 -5 -14 -7 -25 -5 -11 2 -20 0 -20 -6 0 -5 -9 -9 -20
-9 -11 0 -20 -5 -20 -10 0 -6 -6 -10 -13 -8 -15 4 -126 -83 -126 -99 -1 -7 -5
-13 -10 -13 -5 0 -21 -26 -36 -57 -14 -32 -30 -66 -36 -77 -7 -13 -7 -16 0
-11 6 3 11 1 11 -4 0 -6 -4 -11 -9 -11 -7 0 -9 -150 -1 -157 3 -4 6 -12 15
-50 4 -18 12 -33 17 -33 5 0 6 -4 3 -10 -3 -5 -1 -10 6 -10 7 0 9 -3 6 -6 -4
-4 2 -19 13 -34 11 -16 20 -32 20 -37 0 -4 12 -19 25 -32 14 -13 24 -25 22
-28 -5 -4 57 -75 151 -172 39 -41 72 -77 72 -80 0 -4 10 -12 21 -19 19 -12 24
-11 49 17 15 16 31 27 34 24 3 -4 6 -2 6 4 0 5 29 41 65 79 94 100 97 103 147
174 51 73 88 142 88 165 0 8 4 15 8 15 9 0 15 46 15 115 0 72 -6 115 -15 115
-4 0 -8 7 -8 15 0 43 -120 203 -142 189 -4 -3 -8 -1 -8 3 0 11 -61 42 -120 61
-29 9 -180 11 -185 2z m125 -180 c9 -4 25 -7 43 -8 10 -1 15 -6 12 -12 -3 -5
1 -10 9 -10 14 0 38 -21 84 -75 7 -8 11 -15 9 -15 -2 0 1 -21 8 -46 12 -49 2
-126 -20 -151 -5 -6 -21 -25 -34 -42 -13 -17 -29 -31 -36 -31 -7 0 -15 -5 -17
-11 -5 -14 -105 -27 -143 -18 -52 11 -57 14 -81 37 -13 12 -27 22 -31 22 -5 0
-14 15 -22 33 -8 17 -19 35 -24 38 -13 9 -12 152 2 157 6 2 11 11 11 19 0 20
78 96 90 88 6 -4 10 -2 10 4 0 18 98 33 130 21z"/>
<path d="M870 5618 c0 -5 -3 -7 -8 -5 -4 3 -25 -3 -46 -14 -22 -10 -41 -17
-44 -15 -5 6 -34 -18 -86 -71 -55 -56 -66 -70 -59 -77 4 -3 1 -6 -5 -6 -7 0
-12 -7 -12 -15 0 -8 -4 -15 -9 -15 -5 0 -8 -8 -7 -17 2 -10 -2 -23 -9 -29 -6
-7 -10 -26 -9 -43 1 -17 -1 -31 -5 -31 -15 0 11 -176 28 -190 3 -3 15 -22 26
-43 31 -61 99 -125 158 -148 15 -6 27 -17 27 -25 0 -8 5 -14 11 -14 6 0 9 -9
6 -20 -3 -11 0 -20 6 -20 6 0 7 -3 4 -7 -4 -3 -1 -16 6 -27 7 -12 12 -31 11
-43 -1 -12 2 -20 6 -18 4 3 11 -15 14 -40 4 -25 12 -45 18 -45 6 0 8 -9 5 -20
-3 -11 -2 -20 1 -20 8 0 30 -61 38 -105 3 -16 10 -33 16 -36 5 -3 9 -9 9 -13
-2 -20 13 -66 22 -66 6 0 8 -3 4 -6 -3 -4 0 -22 8 -40 8 -19 12 -34 9 -34 -2
0 3 -11 12 -25 9 -14 13 -25 9 -25 -4 0 -2 -7 5 -15 7 -8 9 -15 5 -15 -4 0 -2
-7 5 -15 6 -8 8 -20 4 -26 -4 -7 -3 -9 4 -6 6 5 13 -8 17 -33 4 -22 10 -40 13
-40 6 0 22 -39 36 -85 1 -5 10 -28 20 -49 9 -22 19 -50 22 -63 4 -13 10 -23
15 -23 5 0 5 -7 2 -17 -4 -11 -3 -14 5 -9 8 5 12 -1 12 -18 0 -14 4 -28 10
-31 5 -3 14 -24 20 -45 6 -22 15 -40 20 -40 6 0 10 -11 10 -25 0 -14 5 -25 12
-25 6 0 9 -3 5 -6 -3 -4 5 -26 18 -50 14 -24 26 -48 27 -52 7 -29 24 -62 30
-62 4 0 8 -9 8 -20 0 -11 5 -20 11 -20 5 0 8 -4 5 -9 -4 -5 -3 -11 1 -13 8 -3
46 -77 47 -91 1 -4 8 -12 16 -17 8 -5 11 -10 7 -10 -5 0 0 -12 10 -27 11 -16
25 -39 32 -53 26 -53 48 -89 111 -179 36 -52 70 -101 75 -109 6 -8 18 -24 28
-34 9 -10 17 -23 17 -29 0 -5 5 -7 10 -4 5 3 10 1 10 -5 0 -6 23 -33 50 -61
28 -28 50 -55 50 -60 0 -6 4 -8 8 -5 5 3 15 -4 22 -15 8 -10 20 -19 27 -19 7
0 13 -5 13 -12 0 -6 3 -8 7 -5 3 4 13 1 21 -6 21 -17 180 -16 191 2 5 7 10 12
12 11 9 -4 58 24 54 31 -3 4 4 10 15 14 11 3 20 11 20 17 0 6 3 9 6 6 9 -10
224 196 224 214 0 5 5 6 10 3 6 -3 10 -2 10 4 0 6 12 22 27 36 15 14 24 25 20
25 -4 0 1 8 11 18 9 11 20 17 25 15 4 -2 7 2 7 11 0 8 3 16 8 18 4 1 25 25 47
53 22 27 45 55 50 62 21 26 32 39 60 78 17 22 35 45 40 51 6 6 17 22 25 34 8
12 21 28 28 36 6 7 12 16 12 19 0 15 38 54 45 47 5 -4 5 -2 2 4 -3 6 2 20 11
30 10 10 18 21 18 24 0 9 87 135 96 138 4 2 6 8 2 13 -3 5 0 9 5 9 6 0 11 6
11 13 0 7 10 24 23 37 12 14 22 27 23 30 3 20 18 40 31 40 8 0 11 -4 8 -10 -3
-5 -2 -10 4 -10 5 0 48 -37 94 -82 82 -80 196 -185 257 -238 89 -77 146 -127
162 -142 10 -10 18 -15 18 -12 0 4 15 -8 33 -26 17 -17 44 -39 60 -48 15 -9
27 -20 27 -24 0 -4 7 -8 15 -8 8 0 15 -4 15 -8 0 -5 42 -37 93 -72 50 -35 94
-68 95 -72 2 -4 8 -8 14 -8 5 0 25 -12 44 -26 19 -15 34 -24 34 -20 0 3 9 -3
20 -14 11 -11 24 -20 30 -20 5 0 19 -8 30 -17 11 -10 24 -18 28 -18 4 0 21
-10 37 -21 17 -12 40 -25 53 -28 12 -4 22 -12 22 -17 0 -5 3 -9 8 -8 13 2 52
-13 52 -21 0 -4 18 -13 40 -20 22 -7 40 -17 40 -22 0 -4 3 -7 8 -6 15 3 62
-15 62 -24 0 -5 5 -6 10 -3 6 3 13 0 15 -8 3 -7 16 -13 28 -12 12 1 28 -3 35
-8 8 -6 23 -12 35 -14 11 -2 26 -8 32 -13 6 -5 29 -12 51 -16 21 -3 42 -11 46
-18 4 -6 8 -8 8 -4 0 3 25 0 55 -8 30 -8 69 -16 87 -18 18 -2 40 -6 48 -9 8
-3 43 -8 77 -10 45 -3 68 -10 80 -24 10 -10 14 -12 8 -3 -5 8 2 5 15 -7 14
-12 37 -25 53 -28 15 -4 27 -10 27 -14 0 -10 36 -14 144 -15 71 -1 101 3 104
12 2 6 7 10 12 7 5 -3 15 2 24 10 8 9 19 16 23 16 18 -1 61 24 57 31 -3 4 -1
8 4 8 5 0 21 11 36 25 15 14 24 25 20 25 -4 0 2 8 13 18 11 9 18 23 15 31 -3
8 0 11 7 7 7 -5 11 1 11 14 0 14 4 19 12 14 8 -5 9 -2 5 9 -3 9 -2 19 3 22 6
4 10 19 10 36 0 16 4 29 8 29 7 0 6 105 -2 145 -3 11 -5 26 -5 33 -1 7 -6 10
-13 6 -8 -5 -9 -2 -5 10 4 10 -3 32 -18 56 -14 22 -25 41 -25 44 0 7 -58 66
-65 66 -4 0 -16 10 -26 22 -11 11 -19 17 -19 13 0 -4 -9 0 -20 10 -11 10 -20
15 -20 10 0 -4 -10 -1 -22 7 -13 8 -33 13 -45 12 -12 -1 -20 3 -17 7 7 12
-122 11 -171 -2 -22 -5 -47 -11 -55 -12 -8 -1 -21 -10 -28 -19 -7 -10 -22 -18
-33 -18 -10 0 -19 -4 -19 -9 0 -5 -15 -18 -32 -30 -18 -11 -29 -21 -25 -21 4
0 -5 -13 -20 -28 -27 -27 -30 -27 -71 -15 -23 6 -42 9 -42 6 0 -4 -5 -2 -11 4
-6 6 -18 9 -25 6 -8 -3 -14 1 -14 8 0 7 -3 10 -6 6 -16 -16 -351 132 -336 148
4 5 2 5 -4 2 -6 -3 -26 3 -45 15 -19 12 -54 32 -78 46 -25 14 -50 29 -55 34
-6 5 -50 35 -99 67 -48 32 -84 61 -80 66 5 4 3 5 -3 2 -7 -4 -17 0 -24 8 -7 8
-16 12 -21 9 -5 -3 -9 2 -9 10 0 9 -7 16 -15 16 -8 0 -15 5 -15 10 0 6 -4 10
-10 10 -10 0 -45 27 -87 67 -13 12 -23 20 -23 17 0 -3 -6 1 -13 8 -8 7 -38 33
-67 58 -29 25 -65 56 -80 70 -16 14 -56 50 -90 80 -34 30 -82 75 -107 100 -25
25 -50 44 -54 42 -5 -1 -9 2 -9 7 0 12 -87 101 -93 95 -2 -2 -12 10 -20 28 -9
18 -17 30 -17 26 0 -4 -17 9 -38 30 -21 20 -36 40 -34 45 2 4 -4 7 -12 7 -9 0
-16 5 -16 11 0 6 -28 40 -63 74 -60 61 -119 96 -144 88 -7 -3 -13 -1 -13 4 0
4 -16 8 -35 8 -19 0 -35 -4 -35 -10 0 -5 -5 -3 -10 5 -6 10 -10 11 -10 2 0 -6
-3 -11 -7 -10 -25 5 -74 -22 -117 -64 -26 -26 -44 -48 -40 -48 5 0 4 -4 -2 -8
-5 -4 -18 -24 -27 -44 -10 -21 -23 -38 -29 -38 -6 0 -8 -3 -5 -7 4 -3 -4 -21
-18 -39 -14 -18 -25 -36 -25 -39 0 -4 -13 -27 -30 -52 -16 -24 -30 -48 -30
-54 0 -5 -5 -9 -12 -9 -6 0 -9 -3 -5 -6 3 -4 1 -12 -6 -20 -31 -34 -42 -53
-46 -76 0 -5 -9 -17 -18 -27 -33 -36 -43 -50 -43 -60 0 -5 -3 -11 -7 -13 -5
-1 -28 -32 -52 -68 -25 -36 -50 -68 -55 -72 -6 -4 -7 -8 -2 -8 5 0 -1 -9 -14
-20 -13 -11 -20 -20 -16 -20 4 0 2 -6 -4 -12 -47 -56 -58 -73 -53 -81 3 -6 1
-7 -5 -3 -7 4 -12 4 -12 -1 0 -4 -10 -20 -23 -35 -12 -15 -33 -42 -47 -59 -70
-92 -201 -236 -209 -230 -3 2 -17 20 -30 40 -14 20 -29 39 -35 43 -6 4 -7 8
-3 8 5 0 1 7 -7 16 -9 8 -16 22 -16 30 0 8 -4 14 -10 14 -5 0 -10 6 -10 14 0
7 -11 25 -25 40 -13 14 -21 26 -18 26 3 0 -1 8 -8 17 -12 14 -12 16 1 9 13 -7
13 -6 0 6 -8 7 -24 31 -35 53 -10 22 -26 49 -35 59 -8 11 -10 16 -3 13 8 -5 8
-1 0 17 -7 13 -16 22 -21 19 -5 -4 -7 1 -3 10 3 10 3 17 -1 17 -4 0 -15 17
-24 38 -52 113 -62 138 -60 145 1 4 -2 7 -8 7 -6 0 -9 3 -8 8 1 4 -6 25 -16
47 -9 22 -16 41 -16 43 1 2 -6 14 -15 28 -9 13 -13 29 -10 34 3 6 2 10 -3 10
-9 0 -27 47 -24 63 1 4 -3 7 -8 7 -6 0 -10 7 -10 16 0 8 -10 36 -22 62 -12 26
-21 51 -20 56 2 4 -3 18 -11 30 -14 22 -32 75 -29 89 1 4 -3 7 -8 7 -6 0 -10
9 -10 19 0 11 -4 22 -10 26 -5 3 -7 12 -3 20 3 8 0 15 -6 15 -6 0 -11 9 -11
20 0 12 -7 34 -15 51 -9 16 -13 34 -10 38 3 5 1 11 -3 13 -7 2 -55 139 -57
160 0 3 -3 10 -7 14 -5 4 -8 18 -8 30 0 13 -4 25 -9 28 -4 3 -12 20 -16 38 -4
18 -9 40 -12 48 -2 8 -5 21 -5 28 -1 6 -5 12 -9 12 -15 0 -15 55 0 85 14 30
29 81 36 122 2 12 6 27 10 32 3 6 1 11 -5 11 -8 0 -7 6 1 21 6 12 7 24 2 28
-5 3 -10 18 -11 32 -1 15 -7 40 -13 55 -7 16 -13 32 -13 36 -1 4 -9 16 -18 27
-9 11 -14 21 -12 24 5 4 -67 80 -103 108 -26 21 -114 55 -132 51 -7 -2 -11 0
-8 5 3 5 -32 9 -79 9 -46 0 -84 -3 -84 -8z m165 -227 c30 -17 81 -61 69 -61
-3 0 -1 -6 5 -13 6 -8 8 -17 4 -20 -3 -4 -1 -7 5 -7 10 0 11 -72 1 -110 -6
-22 -70 -84 -99 -96 -48 -20 -125 -7 -165 28 -25 21 -72 98 -60 98 2 0 0 12
-5 26 -7 18 -7 23 1 18 8 -5 10 1 7 20 -3 14 -1 26 3 26 5 0 9 7 9 15 0 8 5
15 12 15 6 0 9 3 6 6 -4 3 1 13 10 22 48 48 142 63 197 33z m4391 -2293 c4 4
4 2 0 -5 -3 -7 2 -14 12 -17 21 -7 65 -79 55 -90 -3 -3 -2 -6 4 -6 5 0 9 -15
8 -33 -3 -44 -26 -107 -37 -101 -4 3 -8 -1 -8 -10 0 -8 -13 -20 -30 -28 -16
-7 -30 -15 -30 -19 0 -3 -23 -6 -51 -8 -59 -2 -134 29 -144 60 -4 11 -10 17
-14 15 -9 -6 -11 1 -17 87 -4 45 -2 67 5 67 6 0 11 6 11 13 0 8 15 28 34 45
43 38 107 53 158 36 20 -7 40 -9 44 -6z"/>
<path d="M1352 1868 c-7 -7 -12 -8 -12 -3 0 5 -16 -6 -35 -25 -19 -18 -32 -37
-29 -42 3 -4 1 -8 -4 -8 -9 0 -9 -55 -1 -90 12 -47 91 -82 152 -67 24 7 77 47
61 47 -5 0 -4 4 3 8 7 4 15 27 19 51 5 30 4 42 -3 38 -6 -4 -11 -1 -10 6 1 33
-5 46 -23 52 -11 4 -18 11 -15 16 4 5 -5 9 -19 9 -14 0 -26 6 -26 13 0 8 -4 7
-10 -3 -8 -12 -10 -12 -10 -1 0 11 -3 11 -17 0 -11 -10 -14 -10 -9 -1 9 15 4
16 -12 0z"/>
<path d="M35 1742 c-2 -2 3 -21 11 -41 9 -20 17 -44 19 -55 3 -10 10 -25 17
-34 11 -13 11 -14 -2 -7 -12 7 -12 4 1 -11 9 -10 20 -34 24 -51 3 -18 10 -33
14 -33 4 0 7 -8 8 -17 1 -10 15 -51 32 -90 16 -40 28 -73 26 -73 -3 0 4 -16
15 -36 11 -19 18 -39 15 -45 -4 -5 -1 -9 4 -9 6 0 11 -11 11 -25 0 -14 5 -25
10 -25 6 0 9 -3 8 -7 -3 -11 22 -85 33 -99 5 -6 11 -21 13 -35 3 -13 5 -26 6
-29 2 -3 2 -8 1 -12 0 -5 3 -8 9 -8 6 0 9 -3 8 -7 -2 -13 14 -63 21 -63 4 0 8
-12 9 -27 1 -14 8 -34 16 -42 7 -9 12 -24 11 -33 -2 -10 1 -18 6 -18 5 0 9
-11 9 -25 0 -14 4 -25 8 -25 8 0 38 -89 34 -102 -1 -5 2 -8 7 -8 5 0 12 -14
16 -31 7 -29 40 -53 59 -41 5 3 45 4 88 3 67 -2 82 1 94 16 7 10 14 26 14 36
0 9 5 17 12 17 6 0 9 3 5 6 -6 6 10 54 39 121 8 17 14 38 14 47 0 9 5 16 10
16 6 0 10 6 9 13 -2 12 3 30 27 84 8 17 14 35 14 41 0 5 7 23 15 38 8 16 15
37 15 46 0 9 4 19 10 23 5 3 6 13 3 22 -4 11 -3 14 5 9 8 -5 12 0 12 13 0 12
5 21 11 21 5 0 7 5 4 10 -3 5 -3 16 2 23 4 6 8 17 9 22 1 6 6 21 12 35 5 14
10 28 11 32 1 4 8 23 17 43 8 19 12 35 8 35 -3 0 2 7 10 16 9 8 16 22 16 30 0
25 1 29 18 48 9 11 11 16 4 12 -7 -4 -4 8 8 28 11 20 20 39 21 44 3 13 10 36
20 60 5 13 6 28 3 34 -4 7 -2 8 4 4 11 -6 17 12 13 37 0 4 4 7 10 7 5 0 7 5 4
10 -3 6 -1 10 5 10 6 0 8 5 5 10 -4 6 -1 17 5 25 15 18 18 17 -95 20 -92 2
-107 -3 -113 -40 -2 -11 -10 -31 -19 -44 -8 -13 -10 -21 -4 -17 5 4 4 -6 -4
-21 -8 -15 -15 -36 -15 -46 0 -11 -4 -15 -12 -11 -7 4 -8 3 -4 -5 4 -6 3 -17
-2 -24 -7 -10 -21 -49 -26 -77 -1 -3 -4 -9 -7 -15 -4 -5 -10 -25 -14 -42 -3
-18 -10 -33 -14 -33 -4 0 -8 -7 -9 -15 -1 -8 -3 -22 -4 -30 -1 -8 -5 -15 -10
-15 -4 0 -7 -3 -6 -7 2 -10 -22 -94 -30 -108 -4 -5 -7 -12 -8 -15 0 -3 -6 -18
-13 -35 -7 -16 -14 -38 -16 -47 -2 -9 -9 -26 -15 -37 -6 -12 -8 -21 -4 -21 3
0 1 -7 -6 -15 -6 -8 -8 -20 -4 -26 4 -7 3 -9 -4 -6 -6 5 -13 -8 -17 -33 -4
-22 -10 -38 -14 -36 -4 3 -8 -6 -9 -19 -1 -12 -7 -36 -13 -51 -7 -16 -12 -32
-11 -36 1 -3 -5 -12 -13 -18 -12 -10 -15 -9 -16 6 -1 11 -1 22 0 27 0 4 -4 7
-9 7 -6 0 -10 9 -10 19 0 11 -4 22 -8 25 -5 3 -15 30 -22 61 -7 30 -17 55 -22
55 -4 0 -8 7 -8 16 0 18 -33 117 -56 171 -8 17 -14 38 -14 47 0 9 -5 16 -11
16 -5 0 -8 4 -5 9 3 5 -1 21 -9 37 -7 15 -12 31 -9 36 3 4 0 8 -6 8 -6 0 -10
6 -9 13 2 18 -12 57 -21 57 -4 0 -5 12 -2 26 3 17 1 25 -5 21 -10 -6 -29 55
-25 76 1 4 -2 7 -8 7 -5 0 -12 17 -16 38 -4 20 -9 41 -13 47 -3 5 -15 35 -26
65 l-20 55 -97 1 c-54 0 -100 -1 -103 -4z"/>
<path d="M2873 1741 c-11 -9 -10 -800 1 -794 5 4 6 0 1 -7 -12 -19 -12 -320
-1 -313 5 4 5 0 0 -8 -21 -34 -13 -37 85 -36 l96 2 0 85 c1 47 4 90 8 97 4 6
2 13 -4 15 -9 3 -9 10 1 27 9 18 9 22 0 16 -9 -6 -9 -3 -1 13 8 15 8 21 -2 25
-9 3 -9 7 2 20 11 14 11 17 0 17 -11 0 -11 2 1 10 8 5 10 10 4 10 -11 0 -12
85 -1 96 3 3 3 12 1 19 -4 9 14 12 70 12 58 0 76 -3 76 -13 0 -8 5 -14 11 -14
5 0 7 -4 4 -10 -3 -5 -3 -10 2 -10 4 0 19 -23 32 -50 14 -28 29 -50 34 -50 4
0 5 -4 2 -10 -3 -5 -3 -10 2 -10 4 0 13 -10 18 -23 17 -35 69 -131 75 -137 12
-12 40 -60 34 -60 -3 0 6 -14 20 -31 14 -17 26 -35 26 -40 0 -5 51 -9 114 -9
109 0 114 1 109 20 -3 11 -9 20 -13 20 -5 0 -13 14 -19 30 -5 17 -15 30 -20
30 -6 0 -11 6 -11 14 0 8 -6 21 -14 28 -7 8 -17 24 -20 36 -4 12 -12 22 -17
22 -5 0 -9 6 -9 14 0 8 -7 22 -16 30 -8 9 -12 20 -9 26 3 5 1 10 -4 10 -6 0
-11 7 -11 15 0 8 -4 15 -9 15 -10 0 -34 38 -47 73 -3 9 -11 17 -16 17 -5 0 -7
4 -4 9 3 5 -1 14 -9 21 -8 7 -15 19 -15 26 0 8 -5 14 -11 14 -5 0 -7 5 -4 10
4 6 11 8 16 5 5 -4 9 -1 9 5 0 6 6 10 13 9 19 -2 57 12 57 22 0 5 7 9 15 9 8
0 35 20 59 45 25 25 42 45 39 45 -3 0 1 8 9 18 16 18 44 91 40 106 -2 4 3 14
9 22 9 11 8 14 -2 14 -9 0 -10 3 -4 8 14 10 15 42 3 65 -8 15 -7 18 3 12 8 -6
10 -4 3 6 -4 8 -9 19 -11 24 -1 6 -4 20 -7 32 -16 74 -143 204 -188 195 -5 -1
-8 2 -8 6 0 23 -124 36 -352 37 -131 1 -241 -1 -245 -4z m244 -155 c18 -1 35
4 36 9 3 7 9 7 18 0 12 -9 36 -10 84 -3 21 2 107 -13 133 -24 48 -21 89 -75
83 -110 0 -5 2 -8 6 -8 5 0 8 -25 8 -55 1 -30 -2 -55 -6 -55 -4 0 -10 -13 -14
-29 -3 -15 -18 -40 -33 -54 -28 -26 -102 -63 -102 -50 0 4 -4 3 -10 -3 -5 -5
-40 -7 -80 -4 -44 3 -70 1 -70 -5 0 -5 -5 -3 -10 5 -6 10 -10 11 -10 3 0 -9
-7 -10 -26 -3 -15 6 -23 6 -19 0 3 -5 -4 -7 -16 -5 -29 6 -40 24 -28 46 6 12
5 19 -4 22 -9 3 -9 7 2 20 11 14 11 17 0 17 -11 0 -11 2 1 10 8 5 10 10 3 10
-11 0 -10 71 2 90 3 5 -1 10 -7 13 -10 3 -10 7 0 19 10 12 10 17 1 20 -9 3 -9
9 1 27 10 19 10 22 -2 15 -11 -6 -11 -5 0 8 10 12 10 18 1 23 -8 6 -7 10 2 16
9 5 10 9 2 9 -6 0 -9 9 -6 20 3 11 10 17 16 13 5 -3 25 -6 44 -7z"/>
<path d="M5889 1735 c0 0 -2 -10 -3 -22 -2 -13 2 -23 8 -23 7 0 7 -3 1 -8 -15
-10 -19 -46 -5 -37 9 6 9 2 1 -14 -9 -16 -9 -21 1 -21 8 0 9 -3 3 -8 -15 -11
-19 -46 -4 -36 8 5 9 3 3 -7 -5 -8 -9 -18 -10 -24 0 -5 -2 -15 -2 -21 -1 -6
-19 -11 -39 -11 -21 0 -44 -1 -50 -2 -9 -1 -13 -25 -13 -83 0 -57 3 -78 10
-68 5 8 10 10 10 4 0 -12 41 -11 59 1 15 9 30 -34 27 -76 -1 -19 2 -42 7 -53
5 -11 5 -16 0 -13 -11 7 -9 -96 3 -114 4 -8 3 -10 -4 -5 -15 9 -15 1 -1 -26 6
-11 7 -18 2 -15 -11 7 -9 -96 3 -114 4 -8 3 -10 -4 -5 -15 9 -15 1 -1 -26 6
-11 7 -18 2 -15 -4 3 -8 -21 -8 -53 0 -32 3 -56 7 -54 4 3 6 -9 4 -25 -2 -17
1 -31 5 -31 5 0 9 -8 9 -18 0 -11 9 -27 20 -37 11 -10 17 -22 14 -26 -3 -5 1
-9 9 -9 8 0 18 -7 21 -16 4 -9 9 -14 12 -11 3 3 17 -1 31 -8 15 -8 30 -12 35
-9 4 3 8 1 8 -4 0 -5 18 -8 41 -8 22 1 43 -2 45 -6 3 -4 16 -3 29 2 15 6 27 6
30 0 3 -6 15 -6 30 0 15 6 27 6 30 0 4 -6 13 -7 23 -1 15 8 18 23 17 86 l0 77
-58 2 c-31 0 -57 -3 -57 -7 0 -5 -6 -5 -12 0 -7 4 -20 6 -29 5 -25 -4 -67 44
-64 73 2 14 -1 27 -6 31 -5 3 -6 11 -2 17 11 18 12 36 2 43 -5 3 -6 11 -2 17
11 17 11 57 1 63 -4 3 -5 11 -1 17 11 18 12 36 2 43 -5 3 -6 11 -2 17 11 18
12 36 2 43 -5 3 -6 11 -2 17 11 19 11 47 -1 47 -8 0 -8 3 -1 8 14 9 13 65 0
74 -7 5 -6 8 1 8 6 0 10 19 9 45 -1 39 1 44 20 41 11 -2 26 2 34 8 12 9 13 8
6 -4 -8 -13 -7 -13 8 -1 10 7 17 9 17 3 0 -11 18 -11 37 1 6 4 14 3 18 -3 4
-6 13 -7 23 -1 11 6 24 6 35 0 19 -11 19 -13 21 81 1 48 -2 68 -14 77 -8 6
-19 8 -25 5 -17 -11 -80 -10 -87 2 -6 8 -8 8 -8 0 0 -6 -18 -11 -41 -12 -24
-1 -38 2 -34 8 3 6 2 10 -4 10 -5 0 -8 13 -6 30 2 16 -1 32 -6 36 -5 3 -6 11
-2 17 11 18 10 67 -1 67 -7 0 -8 3 -1 8 6 4 11 17 11 30 1 16 -4 22 -20 23
-15 1 -160 4 -177 4z"/>
<path d="M4266 1521 c-4 -5 -17 -8 -31 -6 -14 1 -25 -2 -25 -6 0 -5 -14 -9
-31 -9 -17 0 -28 -4 -24 -10 3 -5 0 -7 -8 -4 -8 3 -18 1 -22 -5 -3 -6 -15 -11
-26 -11 -10 0 -19 -4 -19 -10 0 -5 -6 -10 -13 -10 -7 0 -35 -20 -60 -45 -26
-25 -44 -45 -41 -45 4 0 -3 -9 -16 -20 -13 -11 -20 -20 -16 -20 4 0 -3 -15
-16 -32 -13 -18 -22 -34 -21 -35 3 -3 -4 -26 -16 -58 -4 -11 -7 -30 -6 -42 1
-13 -1 -23 -4 -23 -4 0 -7 -36 -8 -80 -1 -53 2 -78 9 -74 6 4 5 -2 -1 -15 -8
-14 -8 -21 -1 -21 5 0 9 -3 8 -7 -6 -25 46 -163 65 -171 4 -2 7 -8 7 -12 0
-13 77 -90 90 -90 6 0 9 -4 6 -9 -3 -5 6 -12 19 -15 14 -4 23 -11 20 -17 -4
-5 -3 -9 2 -8 11 3 66 -12 78 -21 14 -11 121 -26 170 -25 63 3 133 15 170 31
19 8 38 14 41 13 3 0 12 8 21 18 9 11 12 12 8 3 -4 -8 3 -4 14 9 12 13 21 20
21 17 0 -4 16 10 36 31 39 42 80 97 76 101 -1 1 5 16 13 32 18 35 26 33 -107
34 l-98 1 -5 -27 c-4 -15 -15 -30 -26 -33 -11 -4 -17 -11 -14 -16 4 -5 1 -9
-5 -9 -6 0 -19 -7 -27 -16 -9 -8 -24 -13 -34 -11 -10 3 -19 1 -21 -3 -3 -9
-58 -14 -121 -11 -26 1 -36 5 -31 13 4 7 3 8 -5 4 -16 -10 -92 36 -117 69 -10
15 -23 32 -29 39 -5 6 -12 18 -14 26 -2 8 -7 27 -11 41 -4 15 -4 32 0 39 11
17 40 22 40 7 0 -7 5 -5 10 3 8 12 10 12 10 1 0 -11 3 -11 17 0 12 11 17 11
20 2 3 -9 12 -9 30 -2 15 5 29 6 32 2 8 -11 34 -10 44 2 6 7 10 6 13 -2 4 -8
14 -9 35 -3 16 5 29 5 29 1 0 -9 31 -8 48 3 6 4 12 3 12 -3 0 -7 8 -7 27 0 14
5 29 6 32 2 8 -11 34 -10 44 2 6 7 10 6 13 -2 4 -8 14 -9 35 -3 16 5 29 5 29
1 0 -9 31 -8 48 3 6 4 12 3 12 -3 0 -7 8 -7 27 0 14 5 29 6 32 2 9 -12 34 -10
50 5 17 16 23 142 7 142 -6 0 -4 5 4 10 8 5 10 10 4 10 -6 0 -10 11 -9 25 2
14 0 25 -4 25 -4 0 -8 12 -9 26 -1 15 -7 33 -13 40 -6 8 -8 14 -3 14 5 0 5 4
-1 8 -5 4 -19 22 -29 41 -22 39 -87 109 -119 127 -54 31 -111 54 -133 54 -12
0 -25 4 -28 9 -4 5 -13 8 -21 7 -9 -1 -38 1 -65 4 -28 4 -50 3 -50 -2 0 -4 -5
-8 -11 -8 -5 0 -7 5 -4 10 3 6 4 10 1 10 -3 0 -7 -4 -10 -9z m39 -161 c-3 -5
13 -8 40 -6 25 2 45 0 45 -5 0 -5 9 -9 20 -9 37 0 129 -71 137 -106 1 -5 9
-27 17 -49 10 -29 11 -44 4 -53 -12 -14 -49 -12 -60 3 -5 6 -8 6 -8 -1 0 -6
-11 -11 -25 -11 -14 0 -22 4 -18 10 4 6 1 7 -8 1 -20 -13 -139 -13 -139 0 0 6
-4 6 -8 -1 -9 -14 -63 -13 -74 2 -5 6 -8 6 -8 -1 0 -7 -28 -10 -75 -10 -74 1
-75 1 -75 27 0 14 3 29 7 33 4 3 8 16 10 28 2 11 13 29 25 39 11 11 18 19 15
19 -4 0 2 9 13 20 11 11 25 20 31 20 5 0 7 4 4 10 -3 6 1 7 9 4 9 -3 16 -2 16
4 0 9 55 26 77 23 6 -1 14 3 18 9 3 5 8 10 11 10 3 0 3 -4 -1 -10z"/>
<path d="M5250 1520 c0 -3 -17 -6 -37 -5 -21 1 -40 -1 -43 -5 -3 -3 -31 -14
-62 -23 -32 -10 -58 -23 -58 -28 0 -6 -14 -15 -31 -21 -16 -6 -28 -13 -25 -15
3 -3 -6 -17 -20 -31 -13 -15 -24 -32 -24 -39 0 -7 -4 -13 -8 -13 -8 0 -9 -8
-11 -80 -2 -39 3 -84 9 -100 1 -3 2 -8 1 -12 0 -5 4 -8 11 -8 6 0 9 -3 5 -6
-6 -6 45 -60 79 -82 10 -7 35 -19 54 -27 19 -9 43 -20 54 -26 14 -8 16 -8 10
3 -6 10 -5 10 7 2 8 -6 41 -19 74 -28 33 -10 73 -24 88 -31 15 -8 25 -11 22
-6 -3 5 17 -2 44 -15 28 -13 56 -34 62 -46 15 -27 12 -80 -5 -90 -6 -4 -7 -8
-2 -8 6 0 1 -6 -9 -14 -11 -8 -23 -12 -27 -9 -5 2 -11 -2 -14 -10 -8 -22 -166
-24 -188 -2 -9 9 -16 14 -16 10 0 -3 -11 2 -25 11 -24 15 -55 65 -55 88 0 7
-34 11 -100 11 l-99 0 3 -28 c1 -15 6 -30 9 -34 4 -3 7 -14 7 -23 0 -10 9 -29
21 -44 11 -14 18 -26 16 -26 -3 0 11 -16 30 -35 19 -19 39 -35 44 -35 5 0 9
-5 9 -11 0 -5 5 -7 10 -4 6 3 10 1 10 -4 0 -6 6 -11 13 -11 6 0 25 -7 41 -15
15 -8 32 -12 37 -9 5 3 9 1 9 -3 0 -10 19 -12 130 -13 73 -1 118 3 128 10 1 2
5 3 10 5 62 17 112 47 148 89 49 58 51 60 47 73 -2 6 1 14 6 18 16 9 13 117
-4 159 -8 20 -14 38 -13 39 2 2 -13 17 -32 33 -19 16 -41 35 -48 41 -7 7 -24
16 -38 19 -13 3 -24 10 -24 15 0 5 -3 8 -8 7 -6 -3 -133 33 -182 50 -8 3 -21
4 -27 3 -7 -1 -13 3 -13 9 0 6 -4 9 -8 6 -19 -12 -89 35 -110 74 -11 22 -16
40 -10 40 5 0 8 7 4 15 -11 30 62 79 112 76 14 0 21 3 16 10 -4 8 -1 8 12 2
11 -5 33 -9 51 -8 18 1 30 -2 27 -7 -3 -4 3 -8 14 -8 34 0 85 -59 86 -100 1
-12 19 -15 96 -15 l95 0 0 33 c1 19 -3 36 -7 38 -4 3 -8 12 -8 21 0 30 -59
108 -99 133 -22 14 -41 28 -41 32 0 4 -7 5 -15 2 -8 -4 -15 -1 -15 5 0 6 -13
11 -29 11 -17 0 -32 4 -35 9 -4 5 -13 8 -21 7 -9 -1 -38 1 -65 4 -28 4 -50 4
-50 0z"/>
<path d="M1466 1511 c-3 -5 -44 -8 -91 -7 l-85 1 -1 -140 c-1 -77 0 -157 1
-179 1 -23 -4 -42 -12 -47 -9 -6 -9 -9 -1 -9 7 0 12 -20 12 -55 0 -35 -5 -55
-12 -55 -9 0 -9 -2 0 -8 15 -9 15 -105 0 -114 -9 -6 -9 -8 0 -8 7 0 12 -20 12
-55 0 -35 -5 -55 -12 -55 -9 0 -9 -2 0 -8 8 -5 11 -37 11 -97 l-2 -90 97 -3
97 -3 0 471 c-1 258 -3 470 -5 470 -2 0 -6 -4 -9 -9z"/>
<path d="M1980 1503 c-14 -7 -33 -13 -42 -13 -10 0 -18 -5 -18 -11 0 -5 -4 -8
-8 -5 -5 3 -18 -3 -29 -13 -11 -10 -29 -22 -41 -25 -12 -4 -21 -10 -19 -14 2
-4 -4 -15 -15 -24 -10 -10 -18 -15 -18 -12 0 4 -18 -19 -39 -51 -22 -32 -38
-62 -35 -67 3 -4 1 -8 -4 -8 -9 0 -26 -55 -23 -72 0 -5 -3 -8 -7 -8 -9 0 -10
-12 -11 -135 0 -118 1 -125 9 -125 4 0 7 -10 6 -22 -1 -13 6 -36 16 -52 9 -16
15 -33 12 -38 -3 -4 0 -8 5 -8 6 0 11 -7 11 -15 0 -8 5 -15 10 -15 6 0 10 -7
10 -15 0 -8 5 -15 10 -15 6 0 10 -5 10 -11 0 -7 16 -26 35 -45 19 -18 35 -30
35 -27 0 3 8 -4 19 -15 10 -12 20 -19 23 -17 3 3 11 -1 18 -10 7 -8 21 -15 31
-15 10 0 20 -4 24 -9 17 -28 253 -31 288 -3 7 5 24 12 40 16 15 3 27 11 27 17
0 6 4 7 10 4 5 -3 15 3 22 15 7 11 17 20 22 20 5 0 19 11 32 26 13 14 24 24
25 22 6 -22 4 -66 -4 -75 -6 -9 -6 -13 2 -13 7 0 10 -4 6 -9 -3 -5 2 -16 10
-25 12 -11 22 -13 40 -6 15 6 27 6 30 0 3 -5 13 -6 21 -3 9 3 32 6 53 7 35 1
36 2 35 39 -1 20 3 37 8 37 5 0 6 5 2 12 -11 18 -13 68 -2 68 5 0 6 5 2 12
-11 18 -13 68 -2 68 5 0 6 5 2 12 -11 18 -13 68 -2 68 5 0 6 5 2 12 -11 18
-13 68 -2 68 5 0 6 5 2 12 -11 18 -13 68 -2 68 5 0 6 5 2 12 -11 18 -13 68 -2
68 5 0 6 5 2 12 -11 18 -13 68 -2 68 5 0 6 5 2 11 -11 18 -12 109 0 109 6 0 6
4 -2 12 -7 7 -8 17 -2 28 5 9 5 22 -1 31 -12 19 -11 32 2 23 8 -5 8 -1 0 13
-6 11 -8 23 -5 26 3 3 -1 16 -10 29 -9 12 -16 18 -16 12 0 -14 -82 -15 -99 -1
-12 9 -13 9 -7 -1 6 -9 1 -12 -17 -8 -37 6 -44 -4 -43 -62 1 -29 -2 -58 -6
-65 -5 -8 -8 -6 -8 6 0 9 -3 17 -7 17 -5 0 -22 13 -39 29 -16 16 -40 32 -52
35 -12 4 -22 12 -22 18 0 6 -3 9 -6 6 -3 -4 -22 1 -42 10 -47 20 -225 24 -262
5z m210 -153 c0 -3 12 -7 27 -8 15 -1 30 -8 35 -15 4 -6 8 -8 8 -3 0 10 70
-42 88 -66 7 -9 19 -24 28 -33 8 -8 12 -15 9 -15 -4 0 0 -11 9 -24 8 -14 17
-38 18 -55 1 -17 5 -31 8 -31 3 0 5 -29 5 -64 0 -35 -3 -62 -6 -60 -6 3 -12
-24 -21 -83 -1 -7 -5 -10 -10 -7 -4 3 -8 -1 -8 -9 0 -8 -11 -26 -25 -41 -13
-14 -21 -26 -17 -26 12 0 -62 -46 -95 -59 -18 -7 -40 -11 -48 -7 -10 4 -14 2
-9 -6 11 -17 -119 -3 -149 16 -13 9 -27 13 -30 10 -4 -4 -9 1 -13 10 -4 9 -19
23 -35 32 -16 8 -29 21 -29 30 0 8 -7 17 -15 20 -8 4 -13 10 -10 14 3 5 1 11
-5 15 -5 3 -10 15 -10 26 0 11 -4 18 -8 15 -14 -8 -21 142 -10 199 10 48 29
95 39 95 5 0 9 5 9 10 0 19 64 76 105 94 22 9 46 20 53 24 16 8 112 10 112 2z"/>
</g>
</svg>
