<?xml version="1.0" standalone="no"?>
<!DOCTYPE svg PUBLIC "-//W3C//DTD SVG 20010904//EN"
 "http://www.w3.org/TR/2001/REC-SVG-20010904/DTD/svg10.dtd">
<svg version="1.0" xmlns="http://www.w3.org/2000/svg"
 width="637.000000pt" height="637.000000pt" viewBox="0 0 637.000000 637.000000"
 preserveAspectRatio="xMidYMid meet">
<metadata>
Created by potrace 1.14, written by Peter Selinger 2001-2017
</metadata>
<g transform="translate(0.000000,637.000000) scale(0.100000,-0.100000)"
fill="#000000" stroke="none">
<path d="M2965 6190 c-11 -4 -23 -6 -27 -3 -5 2 -8 -1 -8 -8 0 -7 -3 -9 -7 -6
-3 4 -17 0 -30 -8 -13 -9 -23 -13 -23 -10 0 10 -87 -60 -112 -89 -13 -16 -31
-37 -40 -47 -10 -10 -16 -19 -13 -19 3 0 -3 -17 -14 -38 -39 -76 -45 -236 -10
-278 6 -8 9 -21 5 -29 -3 -8 -1 -15 4 -15 5 0 12 -11 16 -25 3 -14 10 -25 15
-25 5 0 9 -9 9 -20 0 -10 6 -23 13 -27 6 -4 23 -24 36 -43 14 -19 30 -39 38
-43 7 -4 13 -13 13 -19 0 -6 18 -28 39 -50 22 -21 38 -38 37 -38 -1 0 31 -35
72 -77 57 -60 76 -73 83 -62 5 8 9 10 9 5 0 -8 80 72 146 148 17 19 34 32 38
29 3 -4 6 -1 6 6 0 7 18 34 40 60 22 26 40 52 40 58 0 6 7 13 15 17 8 3 15 12
15 21 0 8 5 15 10 15 6 0 9 3 8 8 -1 4 6 23 17 42 20 37 22 41 24 66 0 8 5 12
11 9 5 -3 7 0 4 8 -2 7 -1 32 4 55 7 29 6 42 -2 46 -7 3 -6 8 4 15 13 10 13
11 0 11 -11 0 -12 2 -3 8 7 5 9 13 3 21 -4 8 -6 20 -3 27 2 6 0 15 -6 19 -6 3
-11 15 -11 26 0 10 -4 19 -8 19 -4 0 -8 9 -9 20 -1 12 -12 33 -25 49 -13 16
-30 38 -38 50 -8 12 -33 34 -55 49 -22 15 -43 31 -47 37 -4 5 -8 6 -8 1 0 -5
-9 -1 -19 8 -11 10 -24 15 -30 12 -5 -4 -13 -1 -16 5 -4 5 -13 8 -21 5 -7 -3
-16 -1 -20 5 -7 11 -138 10 -169 -1z m174 -196 c45 -18 111 -86 111 -115 0
-11 4 -19 9 -19 5 0 9 -27 9 -60 -1 -33 -5 -60 -9 -60 -5 0 -9 -8 -9 -19 0
-10 -13 -35 -30 -56 -16 -21 -30 -35 -30 -31 0 3 -9 -3 -20 -14 -12 -12 -25
-18 -30 -15 -4 3 -10 1 -12 -5 -4 -14 -96 -19 -133 -7 -58 20 -104 58 -129
109 -14 27 -23 58 -21 69 2 10 1 19 -3 19 -4 0 -8 9 -8 20 0 11 4 20 8 20 4 0
7 3 6 8 -9 33 80 160 103 146 5 -3 9 0 9 5 0 6 3 10 8 9 4 0 14 2 22 5 44 17
90 15 149 -9z"/>
<path d="M890 6019 c0 -4 -20 -10 -45 -13 -25 -4 -45 -11 -45 -17 0 -5 -6 -9
-13 -9 -7 0 -22 -8 -33 -18 -10 -10 -27 -21 -36 -25 -10 -3 -18 -14 -18 -23 0
-10 -3 -14 -7 -11 -3 4 -18 -11 -33 -33 -15 -22 -30 -37 -35 -33 -4 5 -5 2 -1
-5 4 -7 3 -19 -3 -26 -6 -7 -12 -21 -14 -32 -1 -10 -6 -25 -10 -31 -5 -7 -5
-17 -2 -23 3 -5 2 -10 -3 -10 -6 0 -8 -31 -6 -72 4 -82 5 -90 24 -133 7 -16
14 -32 14 -35 3 -15 71 -110 79 -110 5 0 21 -12 35 -27 14 -16 26 -27 26 -26
2 7 46 -11 46 -19 0 -5 4 -7 9 -4 7 5 20 -28 26 -64 0 -3 4 -11 8 -17 5 -7 6
-17 3 -22 -4 -5 -2 -11 4 -13 5 -1 11 -15 12 -30 1 -16 6 -28 11 -28 4 0 7 -6
6 -12 -1 -7 3 -26 10 -43 7 -16 13 -38 14 -47 1 -10 5 -18 9 -18 4 0 8 -11 8
-24 0 -14 4 -27 10 -31 5 -3 7 -12 3 -20 -3 -8 0 -15 6 -15 6 0 10 -3 10 -7
-4 -18 14 -73 23 -73 6 0 8 -7 4 -15 -3 -8 0 -15 6 -15 6 0 9 -3 6 -6 -4 -3 0
-20 7 -39 8 -18 11 -35 8 -39 -4 -3 -2 -6 4 -6 9 0 28 -54 24 -72 0 -5 4 -8
10 -8 5 0 8 -4 5 -9 -3 -4 1 -16 8 -27 8 -10 12 -24 9 -31 -3 -7 0 -13 6 -13
6 0 10 -3 9 -7 -1 -8 5 -27 27 -78 18 -42 29 -79 27 -87 -1 -5 2 -8 8 -8 5 0
10 -8 10 -18 0 -10 7 -27 15 -38 8 -10 15 -29 15 -41 0 -13 5 -23 10 -23 6 0
10 -6 10 -13 0 -7 9 -30 20 -52 11 -22 20 -45 20 -52 0 -7 5 -13 11 -13 5 0 8
-4 5 -8 -3 -5 8 -35 24 -68 17 -32 30 -65 30 -72 0 -7 6 -15 13 -18 7 -2 13
-13 14 -23 1 -11 13 -37 27 -59 14 -22 22 -43 19 -46 -4 -3 -1 -6 5 -6 7 0 12
-8 12 -17 0 -10 9 -29 20 -43 11 -14 20 -31 20 -37 0 -7 5 -13 10 -13 6 0 10
-6 10 -14 0 -8 16 -38 36 -67 20 -30 37 -60 37 -66 0 -7 5 -13 10 -13 6 0 7
-3 4 -7 -4 -3 0 -11 7 -17 8 -6 23 -28 34 -48 10 -21 22 -35 25 -32 3 4 9 -5
13 -20 3 -14 10 -24 14 -21 5 3 12 -4 15 -16 4 -11 14 -29 23 -38 28 -29 62
-71 62 -76 0 -7 68 -73 72 -70 2 2 14 -12 28 -31 14 -19 35 -37 47 -40 13 -3
21 -9 18 -14 -2 -4 20 -13 49 -20 57 -13 149 -8 170 9 7 6 15 8 19 5 3 -3 11
3 18 14 7 12 19 18 27 14 10 -3 13 -1 8 6 -4 7 -4 12 1 12 12 0 57 38 123 102
32 31 61 54 64 51 3 -4 6 -1 6 5 0 6 24 35 53 64 29 29 61 65 71 80 10 15 22
25 27 22 5 -3 9 1 9 9 0 7 13 26 30 42 16 15 28 31 26 34 -4 9 31 40 38 34 3
-4 6 1 6 11 0 9 7 19 15 22 8 4 13 10 10 14 -3 5 -1 12 5 15 10 6 118 147 150
196 8 12 23 30 32 40 9 9 14 20 11 23 -3 3 2 8 11 12 9 3 13 10 10 15 -3 5 0
9 5 9 6 0 11 6 11 14 0 8 7 17 16 20 8 3 12 10 9 16 -3 5 -1 10 4 10 6 0 11 6
11 14 0 8 7 16 15 20 8 3 15 12 15 21 0 8 5 15 10 15 6 0 10 6 10 13 0 7 9 23
20 35 11 12 20 28 20 36 0 7 7 16 15 20 8 3 15 10 15 16 0 6 7 19 16 27 15 15
19 13 58 -28 23 -24 64 -64 92 -89 27 -25 48 -48 46 -52 -1 -5 2 -8 8 -8 5 0
30 -20 55 -44 25 -24 45 -42 45 -40 0 3 13 -8 28 -23 50 -50 107 -99 115 -100
5 -1 18 -12 30 -26 12 -13 42 -39 67 -58 24 -19 52 -41 61 -49 27 -25 59 -50
64 -50 3 0 13 -8 23 -17 10 -10 29 -25 42 -33 12 -8 34 -26 47 -39 13 -13 27
-21 30 -18 3 3 16 -5 30 -19 13 -13 28 -24 33 -24 5 0 18 -10 30 -22 11 -12
20 -18 20 -13 0 5 10 -1 23 -12 12 -11 63 -44 112 -74 50 -30 92 -57 93 -62 2
-4 8 -5 13 -1 5 3 9 0 9 -6 0 -6 4 -9 9 -6 5 3 14 -1 21 -9 7 -8 16 -12 21 -9
5 3 9 2 9 -3 0 -12 51 -33 63 -26 6 3 7 1 3 -5 -6 -11 6 -16 27 -13 4 0 7 -4
7 -10 0 -5 5 -7 10 -4 6 3 10 1 10 -4 0 -6 9 -11 20 -11 11 0 20 -4 20 -10 0
-5 3 -9 8 -8 4 1 20 -4 35 -10 16 -7 35 -12 43 -12 8 0 14 -4 14 -8 0 -5 6 -9
13 -10 6 0 43 -12 82 -25 38 -14 73 -23 77 -20 5 2 8 -1 8 -8 0 -6 8 -9 20 -6
11 3 23 1 26 -4 3 -5 19 -9 35 -9 17 0 28 -4 25 -9 -3 -4 8 -7 24 -5 17 2 30
-1 30 -7 0 -6 6 -7 13 -2 18 11 38 13 31 2 -4 -8 76 -15 114 -10 6 1 12 -3 12
-9 0 -5 7 -10 15 -10 8 0 15 -4 15 -10 0 -5 7 -10 15 -10 8 0 15 -4 15 -10 0
-5 3 -9 8 -8 4 1 17 -3 29 -10 12 -6 30 -13 40 -15 10 -2 26 -7 36 -12 10 -4
53 -5 96 -3 60 3 93 12 144 36 37 17 67 36 67 42 0 6 4 9 8 6 10 -6 62 47 62
63 0 6 7 11 15 11 8 0 15 9 15 20 0 11 4 20 8 20 11 0 43 90 36 101 -3 5 -1 9
3 9 5 0 9 34 9 75 0 41 -3 75 -7 75 -4 0 -6 11 -4 25 1 14 -1 25 -5 25 -4 0
-10 10 -14 23 -6 23 -76 137 -76 124 0 -5 -10 3 -22 15 -59 61 -170 100 -277
97 -39 -1 -71 -5 -71 -9 0 -4 -6 -7 -12 -8 -40 -3 -118 -39 -118 -54 0 -5 -4
-8 -10 -8 -12 0 -75 -63 -83 -83 -5 -13 -14 -13 -74 3 -37 10 -69 17 -71 15
-2 -2 -15 3 -29 10 -15 8 -30 12 -35 9 -4 -3 -8 0 -8 5 0 6 -6 11 -14 11 -8 0
-27 5 -43 11 -15 6 -30 10 -32 9 -2 -1 -7 3 -10 9 -4 5 -19 12 -34 15 -15 2
-34 12 -43 20 -8 9 -24 16 -35 16 -10 0 -19 5 -19 11 0 6 -7 8 -16 5 -8 -3
-12 -2 -9 4 3 6 -3 10 -14 10 -12 0 -21 4 -21 8 0 8 -35 28 -53 30 -4 1 -15 8
-23 17 -9 8 -21 15 -29 15 -7 0 -15 3 -17 8 -1 4 -34 27 -73 52 -38 25 -71 48
-73 52 -2 5 -8 8 -14 8 -6 0 -30 16 -54 35 -23 19 -47 35 -52 35 -6 0 -12 4
-14 8 -1 5 -29 28 -60 51 -32 24 -58 48 -58 53 0 5 -4 7 -9 4 -5 -4 -11 -2
-13 2 -1 5 -25 25 -51 45 -27 21 -45 37 -40 37 4 1 -4 8 -19 16 -16 8 -28 19
-28 24 0 5 -9 12 -20 15 -11 4 -18 11 -15 16 4 5 2 9 -3 9 -11 0 -75 55 -169
146 -35 34 -63 60 -63 58 0 -1 -25 23 -56 54 -31 31 -55 57 -53 57 1 0 -16 18
-37 40 -21 21 -42 38 -46 37 -5 -1 -8 4 -8 12 0 7 -13 23 -30 36 -16 12 -27
26 -25 31 3 4 -4 11 -16 14 -11 4 -18 9 -15 12 2 3 -12 21 -33 42 -57 54 -80
71 -96 71 -7 0 -16 4 -20 10 -3 5 -12 7 -20 3 -9 -3 -15 1 -15 8 0 11 -3 11
-10 -1 -5 -8 -10 -10 -10 -5 0 6 -13 11 -30 10 -16 0 -30 -3 -30 -7 0 -3 -8
-5 -17 -3 -10 1 -24 -2 -30 -8 -7 -5 -13 -6 -13 -2 0 5 -9 0 -20 -10 -11 -10
-20 -15 -20 -10 0 23 -108 -122 -137 -185 -3 -8 -9 -17 -12 -20 -3 -3 -15 -21
-25 -40 -11 -19 -24 -44 -30 -54 -6 -11 -19 -29 -28 -40 -10 -11 -20 -28 -24
-38 -3 -10 -10 -18 -15 -18 -6 0 -7 -4 -4 -10 3 -5 2 -10 -4 -10 -5 0 -13 -10
-17 -22 -3 -12 -12 -28 -18 -35 -29 -33 -34 -41 -29 -47 4 -3 1 -6 -5 -6 -7 0
-12 -6 -12 -14 0 -8 -7 -16 -15 -20 -8 -3 -15 -12 -15 -21 0 -8 -5 -15 -12
-15 -6 0 -9 -3 -5 -6 3 -4 1 -12 -6 -19 -7 -7 -19 -23 -27 -35 -8 -13 -23 -32
-33 -42 -9 -10 -15 -18 -12 -18 3 0 -19 -31 -48 -69 -28 -38 -61 -81 -71 -95
-11 -15 -27 -36 -35 -46 -9 -10 -29 -35 -46 -55 -16 -21 -38 -46 -47 -58 -10
-11 -18 -24 -18 -29 0 -5 -4 -6 -10 -3 -5 3 -10 2 -10 -4 0 -5 -22 -34 -50
-63 l-49 -52 -26 29 c-14 17 -25 34 -25 39 0 5 -10 17 -22 27 -11 11 -18 19
-15 19 3 0 -14 32 -39 72 -24 40 -44 78 -44 84 0 7 -3 14 -7 16 -7 3 -137 255
-139 268 0 3 -10 26 -22 52 -12 26 -22 52 -22 58 0 6 -4 8 -10 5 -5 -3 -7 0
-4 8 3 8 1 18 -5 22 -6 3 -11 15 -11 26 0 10 -5 19 -12 19 -6 0 -9 3 -5 6 3 4
-3 24 -14 46 -11 21 -17 43 -14 48 3 6 2 10 -3 10 -8 0 -15 13 -26 50 -1 3 -4
10 -7 15 -4 6 -10 25 -14 43 -3 17 -11 32 -17 32 -6 0 -9 3 -5 6 3 3 -3 25
-13 49 -10 24 -16 46 -13 49 4 3 1 6 -5 6 -7 0 -12 12 -12 26 0 14 -4 23 -9
19 -6 -3 -8 4 -6 15 2 11 0 20 -5 20 -4 0 -11 18 -15 40 -4 22 -11 40 -16 40
-5 0 -9 8 -9 19 0 10 -11 49 -25 85 -14 37 -22 72 -19 78 4 7 2 8 -4 4 -8 -5
-12 1 -12 17 0 13 -3 27 -7 31 -7 6 -13 29 -15 54 -1 6 -5 12 -10 12 -4 0 -8
14 -8 30 0 17 -4 30 -9 30 -6 0 -8 9 -6 20 2 11 0 18 -6 15 -5 -4 -9 5 -9 19
0 14 -5 28 -10 31 -6 4 -8 11 -4 16 3 5 1 16 -6 24 -8 10 -8 15 0 20 11 7 27
41 36 75 17 68 20 93 17 145 -4 61 -27 142 -47 160 -6 6 -12 16 -14 24 -3 14
-51 81 -59 81 -2 0 -1 -6 3 -12 4 -7 -6 2 -23 19 -16 18 -33 30 -36 26 -4 -3
-7 -1 -7 5 0 7 -7 12 -15 12 -8 0 -15 5 -15 10 0 6 -3 9 -7 8 -5 -1 -28 5 -53
12 -48 14 -190 21 -190 9z m162 -229 c21 -8 40 -22 44 -32 3 -10 9 -18 14 -18
10 0 32 -57 34 -92 2 -16 -1 -28 -5 -28 -4 0 -6 -8 -5 -17 6 -40 -69 -120
-106 -114 -5 0 -8 -3 -8 -8 0 -12 -89 -5 -119 11 -33 16 -69 56 -82 88 -14 33
-13 114 0 118 6 2 9 8 6 12 -7 11 74 92 85 85 5 -3 11 -1 14 4 8 13 85 8 128
-9z m4342 -2284 c34 -6 96 -52 96 -71 0 -7 5 -15 11 -17 20 -7 20 -112 -1
-149 -10 -19 -23 -33 -30 -31 -6 1 -9 -2 -5 -7 3 -6 -12 -19 -34 -31 -40 -20
-109 -26 -142 -12 -27 12 -89 65 -84 72 3 4 -2 13 -10 20 -8 7 -12 16 -9 22 3
5 0 15 -6 23 -10 12 -10 15 0 15 7 0 10 7 6 16 -8 21 17 78 48 109 15 14 26
23 26 19 0 -4 8 0 18 9 15 14 67 27 83 20 3 -1 18 -4 33 -7z"/>
<path d="M1352 2264 c-135 -67 -62 -272 82 -233 33 9 76 50 76 73 0 8 4 17 8
20 9 5 8 53 -1 63 -4 3 -7 15 -7 25 0 11 -4 17 -9 13 -6 -3 -15 4 -21 15 -6
11 -19 20 -29 20 -10 0 -21 3 -24 7 -11 11 -51 9 -75 -3z"/>
<path d="M49 2139 c-8 -5 -8 -8 0 -13 9 -6 36 -86 31 -95 -1 -2 3 -7 9 -10 6
-4 12 -16 14 -26 2 -11 9 -30 15 -42 7 -13 10 -23 7 -23 -3 0 0 -10 7 -22 7
-13 13 -25 13 -28 0 -6 23 -66 38 -100 5 -14 12 -32 13 -41 2 -8 10 -29 19
-45 8 -16 15 -34 15 -40 0 -7 7 -25 15 -40 8 -16 15 -37 15 -47 0 -10 4 -16 9
-13 5 4 7 -3 4 -14 -3 -11 -1 -20 4 -20 4 0 20 -36 33 -80 14 -44 28 -80 33
-80 4 0 7 -6 7 -14 0 -8 5 -27 11 -43 6 -15 10 -29 10 -31 -1 -1 6 -16 14 -32
8 -16 15 -32 15 -35 0 -3 7 -21 15 -41 8 -20 15 -42 15 -49 0 -8 4 -15 9 -17
6 -1 11 -14 13 -28 2 -14 9 -34 15 -45 6 -11 11 -24 12 -30 0 -6 49 -11 116
-13 99 -3 115 -1 115 12 0 9 4 16 9 16 5 0 8 11 7 25 -2 13 1 22 5 19 5 -3 9
-2 10 3 3 30 11 57 25 78 9 14 13 25 10 25 -4 0 0 13 8 29 9 16 12 31 9 35 -4
3 0 6 7 6 7 0 11 2 8 6 -3 3 10 44 28 91 19 48 34 92 34 100 0 7 5 13 12 13 6
0 8 3 5 7 -4 3 -2 12 4 20 6 7 9 13 5 13 -4 0 0 14 9 30 9 17 13 30 9 30 -4 0
-1 7 6 15 7 8 9 15 5 15 -5 0 0 9 10 20 10 11 15 20 11 20 -3 0 0 14 9 30 9
17 13 30 9 30 -4 0 0 7 7 17 8 9 13 17 11 17 -2 1 2 15 8 31 15 42 17 49 19
58 0 4 7 20 15 36 9 16 12 31 9 35 -4 3 0 6 7 6 7 0 11 3 7 6 -5 6 29 99 58
157 8 15 11 25 5 22 -5 -3 -2 8 6 24 33 67 32 68 -73 67 -104 -1 -107 -3 -128
-78 -2 -5 -3 -9 -5 -10 -1 -2 -3 -12 -5 -23 -2 -11 -9 -21 -15 -23 -5 -2 -8
-8 -5 -12 3 -5 1 -17 -4 -27 -15 -28 -111 -304 -111 -319 0 -8 -4 -14 -10 -14
-5 0 -9 -3 -9 -7 1 -5 1 -10 -1 -13 -1 -3 -3 -16 -6 -29 -2 -14 -9 -30 -15
-37 -6 -7 -8 -18 -4 -24 3 -5 1 -10 -4 -10 -6 0 -14 -18 -17 -40 -4 -22 -10
-40 -14 -40 -5 0 -11 -18 -15 -40 -4 -26 -11 -38 -18 -33 -7 3 -9 3 -5 -1 3
-4 0 -25 -7 -46 -7 -21 -11 -41 -8 -44 4 -3 1 -6 -6 -6 -7 0 -9 -4 -6 -10 3
-5 1 -10 -5 -10 -6 0 -8 -4 -5 -10 8 -12 -13 -52 -24 -45 -8 5 -25 63 -22 78
0 4 -4 7 -9 7 -6 0 -10 8 -10 18 0 9 -6 29 -14 43 -11 23 -22 55 -27 84 -1 6
-11 33 -24 60 -12 28 -20 56 -18 63 3 6 0 12 -6 12 -6 0 -11 11 -11 25 0 14
-5 25 -12 25 -6 0 -9 3 -6 6 3 3 -5 35 -19 72 -14 37 -26 72 -27 77 -1 6 -10
27 -19 49 -9 21 -17 45 -17 52 0 8 -4 22 -9 32 -20 37 -51 126 -51 144 0 11
-4 17 -9 14 -5 -3 -8 0 -8 7 1 26 -16 77 -27 78 -40 5 -188 4 -197 -2z"/>
<path d="M2886 2138 c3 -5 1 -15 -6 -23 -8 -9 -8 -15 0 -20 8 -5 8 -10 0 -20
-8 -10 -8 -15 0 -20 8 -5 8 -10 0 -20 -8 -10 -8 -15 0 -20 8 -5 8 -10 0 -20
-8 -10 -8 -15 0 -20 8 -5 8 -10 0 -20 -8 -10 -8 -15 0 -20 6 -4 7 -12 3 -18
-10 -15 -10 -38 0 -54 4 -6 3 -15 -3 -18 -8 -5 -8 -11 0 -20 8 -10 8 -15 0
-20 -8 -5 -8 -10 0 -20 8 -10 8 -15 0 -20 -8 -5 -8 -10 0 -20 8 -10 8 -15 0
-20 -8 -5 -8 -10 0 -20 8 -10 8 -15 0 -20 -8 -5 -8 -10 0 -20 8 -10 8 -15 0
-20 -8 -5 -8 -10 0 -20 8 -10 8 -15 0 -20 -8 -5 -8 -10 0 -20 8 -10 8 -15 0
-20 -8 -5 -8 -10 0 -20 8 -10 8 -15 0 -20 -8 -5 -8 -10 0 -20 8 -10 8 -15 0
-20 -8 -5 -8 -10 0 -20 8 -10 8 -15 0 -20 -8 -5 -8 -10 0 -20 8 -10 8 -15 0
-20 -8 -5 -8 -10 0 -20 8 -10 8 -15 0 -20 -8 -5 -8 -10 0 -20 8 -10 8 -15 0
-20 -8 -5 -8 -10 0 -20 8 -10 8 -15 0 -20 -8 -5 -8 -10 0 -20 8 -10 8 -15 0
-20 -8 -5 -8 -10 0 -20 8 -10 8 -15 0 -20 -8 -5 -8 -10 0 -20 8 -10 8 -15 0
-20 -8 -5 -8 -10 0 -20 8 -10 8 -15 0 -20 -8 -5 -7 -11 2 -22 7 -9 13 -17 13
-18 0 -1 -6 -9 -13 -18 -9 -11 -10 -17 -2 -22 7 -4 8 -11 1 -18 -6 -8 -5 -18
4 -30 10 -14 29 -18 92 -20 44 -1 85 3 89 8 13 14 11 138 -1 147 -6 5 -6 8 1
8 14 0 13 62 -1 72 -6 5 -6 8 2 8 13 0 12 18 -1 39 -6 9 -5 12 1 8 6 -4 11 4
11 18 0 16 -5 22 -12 18 -8 -5 -8 -3 -1 8 6 8 10 40 9 72 -1 51 1 58 20 62 24
6 123 1 129 -5 15 -17 35 -69 29 -75 -4 -5 -2 -5 4 -2 10 6 40 -39 36 -55 -1
-5 2 -8 7 -8 5 0 19 -21 32 -47 12 -27 25 -50 28 -53 3 -3 17 -25 30 -50 14
-25 29 -48 35 -52 6 -4 8 -8 4 -8 -4 0 4 -16 17 -36 14 -20 25 -41 25 -46 0
-13 26 -38 33 -32 3 3 53 6 112 6 101 -1 106 0 91 17 -9 10 -16 23 -16 29 0 7
-5 12 -11 12 -5 0 -7 5 -4 10 3 5 2 10 -2 10 -5 0 -17 17 -28 38 -11 20 -22
39 -25 42 -5 5 -30 48 -53 93 -7 12 -22 36 -34 54 -13 17 -23 35 -23 41 0 5
-7 15 -15 22 -9 7 -13 15 -11 18 3 2 0 10 -7 18 -29 33 -37 44 -31 44 3 0 2 6
-4 13 -12 14 3 30 33 35 30 5 105 51 131 81 13 14 32 43 42 63 11 21 23 34 27
30 4 -4 6 0 4 8 -1 8 1 26 4 40 4 14 8 34 10 45 1 11 6 26 11 34 5 7 5 16 0
20 -5 3 -10 23 -11 44 -2 44 -31 127 -45 127 -5 0 -6 5 -3 10 3 6 1 10 -4 10
-6 0 -11 4 -11 10 0 14 -58 68 -81 75 -11 4 -19 11 -19 16 0 5 -9 9 -20 9 -11
0 -20 5 -20 12 0 6 -3 8 -6 5 -4 -3 -16 -1 -28 5 -11 7 -32 11 -45 9 -13 -1
-21 1 -18 6 3 4 -111 9 -254 9 -153 1 -256 -2 -253 -8z m294 -148 c9 5 19 5
27 -2 9 -7 13 -7 13 0 0 7 10 8 28 2 16 -4 36 -4 45 2 10 5 17 5 17 0 0 -4 10
-9 23 -9 47 -3 102 -26 116 -50 6 -10 11 -13 11 -8 0 6 8 -6 18 -25 23 -45 27
-138 8 -184 -34 -81 -119 -123 -229 -115 -26 2 -47 2 -47 -1 0 -3 -27 -3 -60
0 -33 3 -60 2 -60 -3 0 -4 -4 -6 -10 -2 -5 3 -6 13 -3 22 5 12 3 14 -8 8 -11
-6 -12 -5 -1 6 15 16 16 33 0 23 -7 -5 -8 -3 -2 7 12 19 12 50 1 73 -6 12 -5
16 1 12 5 -3 10 5 10 19 0 15 -5 22 -12 18 -6 -3 -6 0 2 8 15 16 16 33 0 23
-8 -5 -8 -3 -2 7 5 8 9 48 9 89 l0 75 33 -1 c17 0 32 4 32 9 0 5 6 5 13 -1 8
-7 18 -7 27 -2z"/>
<path d="M5924 2132 c-17 -2 -22 -10 -23 -40 0 -20 -1 -44 -1 -52 -1 -8 1 -38
3 -67 2 -29 1 -56 -2 -61 -8 -11 -62 -10 -80 2 -9 6 -12 5 -7 -2 3 -5 1 -12
-6 -14 -12 -4 -20 -106 -11 -141 4 -14 8 -16 19 -6 8 6 14 7 14 2 0 -5 9 -9
20 -10 11 -1 18 1 16 5 -3 4 3 8 13 8 21 0 20 4 24 -106 2 -47 -1 -93 -6 -104
-5 -10 -5 -16 0 -13 4 3 8 -57 8 -134 0 -76 -4 -139 -8 -139 -5 0 -5 -5 -2
-11 4 -5 9 -33 11 -61 3 -28 9 -57 15 -64 6 -7 8 -18 4 -24 -3 -5 -2 -10 3
-10 5 0 14 -11 21 -24 14 -25 78 -66 105 -66 10 0 15 -4 12 -8 -2 -4 54 -9
125 -11 l129 -3 1 39 c2 68 1 115 -3 118 -2 2 -39 5 -83 6 -90 2 -122 13 -131
42 -3 11 -6 142 -6 291 -1 210 2 270 12 268 7 -1 18 3 26 9 9 7 14 8 14 1 0
-9 20 -9 40 -2 3 1 10 1 15 0 37 -8 98 -4 107 8 18 21 12 132 -8 151 -9 9 -14
11 -11 5 5 -8 -23 -11 -95 -10 l-101 1 -1 114 -1 114 -75 1 c-41 1 -85 0 -96
-2z"/>
<path d="M2110 1923 c0 -4 -15 -8 -33 -9 -71 -2 -150 -28 -185 -61 -7 -7 -17
-13 -22 -13 -12 0 -100 -88 -100 -100 0 -5 -6 -15 -12 -22 -21 -22 -45 -71
-54 -108 -11 -50 -11 -50 -14 -52 -1 -2 -3 -31 -4 -65 -1 -35 -5 -66 -9 -69
-3 -4 -3 -14 2 -23 5 -9 7 -26 6 -38 -1 -13 1 -23 5 -23 4 0 7 -6 7 -12 2 -51
26 -114 48 -130 6 -4 7 -8 3 -8 -28 0 120 -160 148 -160 8 0 13 -4 9 -9 -3 -6
10 -13 30 -17 19 -3 35 -10 35 -14 0 -7 75 -22 120 -25 8 0 21 -4 29 -9 10 -6
12 -5 7 2 -5 8 5 12 33 13 43 2 76 5 89 9 4 1 10 2 15 1 4 0 7 3 7 7 0 4 15
14 34 20 19 7 58 34 86 59 40 36 51 42 50 27 -1 -10 -2 -40 -1 -66 l1 -48 95
0 95 0 1 33 c0 41 0 857 0 877 -1 12 -18 15 -96 15 l-95 0 -1 -30 c-1 -16 0
-45 1 -62 2 -36 -15 -45 -25 -13 -3 11 -12 20 -19 20 -7 0 -21 9 -33 19 -28
27 -98 61 -123 61 -12 0 -18 4 -15 10 3 6 -1 7 -10 4 -8 -4 -21 -1 -28 4 -8 7
-18 7 -27 2 -8 -5 -21 -5 -32 1 -10 5 -18 6 -18 2z m100 -174 c0 -5 9 -9 19
-9 11 0 36 -9 55 -21 20 -12 36 -18 36 -14 0 4 18 -15 41 -44 23 -29 37 -56
33 -62 -4 -7 -3 -9 4 -5 7 4 15 -8 22 -31 16 -51 26 -198 13 -190 -5 3 -9 -4
-8 -16 1 -12 -4 -33 -12 -47 -7 -14 -13 -30 -13 -36 0 -7 -7 -15 -16 -18 -9
-4 -14 -9 -11 -13 4 -3 -8 -19 -25 -35 -35 -32 -88 -63 -88 -51 0 5 -4 2 -9
-6 -22 -35 -207 -14 -238 27 -7 9 -13 13 -13 9 0 -4 -9 1 -20 10 -11 10 -20
23 -20 31 0 7 -4 11 -10 7 -11 -7 -60 93 -60 123 0 12 -6 22 -12 23 -10 0 -10
2 -1 6 10 3 10 10 2 25 -9 16 -8 19 3 12 11 -6 11 -5 -1 9 -11 14 -11 17 0 18
11 0 11 2 1 6 -10 4 -10 8 0 21 10 12 10 14 1 8 -7 -4 -13 -2 -13 3 0 6 5 11
10 11 6 0 8 11 6 25 -3 14 0 25 5 25 5 0 9 8 9 19 0 10 17 41 38 69 41 56 111
101 169 108 21 3 38 6 39 7 7 7 64 3 64 -4z"/>
<path d="M4284 1922 c6 -10 2 -13 -15 -12 -13 1 -26 1 -29 0 -3 -1 -16 -3 -30
-6 -30 -5 -124 -46 -128 -56 -2 -5 -8 -8 -13 -8 -23 0 -155 -150 -132 -150 4
0 3 -4 -3 -8 -12 -8 -45 -103 -50 -147 -7 -52 -7 -143 0 -154 4 -6 1 -11 -6
-11 -9 0 -9 -3 2 -10 8 -5 12 -10 8 -10 -4 0 0 -21 8 -47 8 -27 17 -56 19 -67
2 -10 9 -24 16 -32 6 -8 8 -14 5 -14 -7 0 5 -16 42 -55 13 -14 20 -25 17 -25
-3 0 4 -9 15 -20 11 -11 24 -20 29 -20 5 0 11 -6 14 -12 4 -11 40 -32 124 -71
12 -5 31 -7 42 -4 12 3 19 1 15 -4 -6 -11 -2 -11 96 -11 94 -1 140 4 140 14 0
4 7 5 15 2 8 -4 15 -1 15 5 0 6 11 11 24 11 13 0 29 7 36 15 7 8 19 15 26 15
14 0 124 102 124 115 0 4 8 19 18 33 27 39 34 72 15 79 -8 3 -19 0 -24 -8 -5
-8 -9 -9 -9 -3 0 6 -11 12 -25 12 -14 0 -25 -6 -25 -12 0 -8 -2 -8 -8 0 -4 6
-25 10 -47 9 -55 -3 -55 -3 -55 -21 0 -8 -4 -12 -10 -9 -5 3 -10 1 -10 -4 0
-16 -42 -61 -57 -61 -7 0 -13 -4 -13 -8 0 -5 -6 -9 -12 -10 -7 0 -35 -5 -63
-9 -48 -8 -144 1 -155 15 -3 4 -11 8 -18 10 -18 3 -72 44 -72 53 0 4 -6 14
-12 21 -19 21 -49 80 -37 72 8 -4 8 0 0 14 -6 11 -11 31 -10 44 0 13 3 17 6
10 2 -6 10 -9 16 -5 18 11 47 11 47 -1 0 -6 4 -6 11 1 8 8 20 8 34 3 13 -5 26
-6 29 -2 10 10 46 9 46 -1 0 -5 7 -4 15 3 12 10 15 10 15 0 0 -10 3 -10 15 0
11 9 15 9 15 1 0 -9 5 -9 20 -1 13 7 20 7 20 1 0 -7 9 -7 25 -1 17 7 25 6 25
-1 0 -8 5 -7 15 1 9 8 15 8 15 2 0 -7 10 -8 30 -2 20 6 30 5 30 -2 0 -6 6 -6
15 2 8 7 15 8 15 3 0 -5 10 -9 23 -7 12 1 22 3 22 4 0 1 10 3 23 4 12 2 22 -2
22 -8 0 -6 4 -6 11 1 8 8 20 8 34 3 13 -5 26 -6 29 -2 10 9 46 10 46 0 0 -5 9
-4 20 2 18 9 19 19 16 103 -2 50 -7 103 -10 117 -4 14 -8 30 -9 35 -13 62
-130 215 -164 215 -7 0 -13 4 -13 10 0 5 -11 12 -25 16 -14 3 -25 10 -25 15 0
5 -3 8 -7 8 -5 -1 -10 0 -13 1 -3 1 -18 4 -35 6 -16 3 -32 9 -35 12 -3 4 -16
7 -30 6 -14 -1 -35 2 -47 7 -15 5 -23 5 -23 -2 0 -6 -7 -6 -20 1 -15 8 -20 8
-20 -1 0 -8 -5 -7 -17 2 -13 11 -15 11 -9 1z m62 -161 c-3 -5 7 -9 22 -9 43
-1 92 -13 92 -23 0 -5 6 -9 13 -9 38 -1 117 -116 117 -171 0 -24 -27 -36 -50
-21 -10 6 -21 8 -25 4 -12 -13 -95 -12 -95 1 0 9 -2 9 -8 1 -8 -14 -54 -13
-64 1 -5 6 -8 6 -8 -1 0 -14 -50 -16 -67 -2 -6 5 -14 5 -17 0 -8 -14 -76 -13
-76 1 0 9 -2 9 -8 0 -8 -12 -29 -13 -49 0 -6 4 -14 3 -18 -3 -12 -20 -24 -10
-23 20 1 17 5 30 10 30 4 0 7 3 6 8 -3 14 22 62 47 90 31 36 99 70 149 76 21
3 41 7 44 10 8 9 14 7 8 -3z"/>
<path d="M5256 1922 c-4 -6 -15 -9 -26 -7 -11 2 -22 0 -25 -5 -3 -5 -11 -7
-19 -4 -7 3 -35 -5 -62 -17 -27 -12 -52 -22 -56 -21 -5 1 -8 -3 -8 -9 0 -5 -4
-7 -10 -4 -5 3 -10 -1 -10 -9 0 -9 -7 -16 -15 -16 -8 0 -15 -4 -15 -8 0 -5 -8
-17 -17 -28 -27 -29 -42 -65 -48 -109 -6 -51 5 -136 16 -129 5 3 9 -4 9 -15 0
-12 5 -21 10 -21 6 0 10 -7 10 -15 0 -8 5 -15 10 -15 6 0 20 -11 32 -25 11
-13 25 -22 30 -19 4 3 8 0 8 -6 0 -7 7 -10 15 -6 8 3 15 1 15 -4 0 -6 9 -10
20 -10 11 0 20 -5 20 -11 0 -6 6 -9 14 -6 8 3 16 2 18 -3 3 -7 48 -19 86 -22
6 -1 12 -4 12 -8 0 -3 10 -7 22 -7 13 -1 24 -7 26 -13 2 -5 8 -7 13 -4 16 9
118 -38 125 -58 3 -10 9 -16 14 -13 4 3 7 -14 7 -37 -2 -34 -9 -49 -31 -70
-17 -15 -32 -25 -35 -23 -2 3 -10 0 -17 -6 -7 -6 -39 -10 -71 -10 -80 1 -93 3
-93 13 0 4 -3 8 -7 7 -20 -3 -53 15 -53 28 0 8 -4 12 -9 9 -5 -4 -15 12 -23
35 l-14 41 -101 1 c-80 2 -99 -1 -91 -10 7 -9 7 -13 -1 -13 -7 0 -9 -5 -4 -12
4 -7 8 -19 9 -26 5 -28 48 -99 77 -124 17 -16 26 -28 21 -28 -5 0 13 -11 40
-25 27 -14 55 -25 63 -25 7 0 13 -5 13 -11 0 -7 12 -10 29 -7 17 2 28 1 25 -4
-4 -7 80 -12 89 -5 2 1 12 -5 22 -13 11 -8 16 -10 12 -4 -5 8 7 12 34 12 23 1
44 3 47 6 3 3 12 0 20 -7 9 -6 13 -7 9 -1 -3 6 15 18 46 29 55 20 57 21 98 57
41 37 108 151 78 132 -8 -5 -9 -3 -3 7 11 18 13 109 2 109 -4 0 -8 11 -8 25 0
14 -7 28 -15 31 -8 4 -15 10 -15 15 0 18 -87 87 -118 94 -9 2 -34 11 -54 19
-21 9 -40 16 -43 16 -3 0 -7 1 -10 1 -3 1 -9 3 -15 4 -5 1 -11 3 -12 5 -2 1
-11 3 -21 5 -10 2 -26 7 -35 11 -22 9 -30 12 -66 19 -37 8 -106 61 -107 83 -4
41 2 67 16 75 8 4 13 12 10 16 -4 8 31 24 48 22 4 -1 7 3 7 7 0 9 104 8 146
-2 38 -9 82 -56 90 -95 l6 -28 94 -2 94 -2 0 36 c0 46 -35 121 -77 164 -18 18
-33 30 -33 26 0 -4 -9 3 -20 16 -10 13 -19 20 -20 16 0 -5 -12 -1 -27 7 -43
23 -83 31 -143 31 -30 0 -58 4 -61 9 -4 4 -9 3 -13 -2z"/>
<path d="M1324 1912 c4 -7 1 -12 -7 -12 -18 0 -30 -27 -16 -36 7 -4 6 -10 -1
-19 -8 -10 -8 -15 0 -20 8 -5 8 -10 0 -20 -8 -10 -8 -15 0 -20 8 -5 8 -10 0
-20 -8 -10 -8 -15 0 -20 8 -5 8 -10 0 -20 -8 -10 -8 -15 0 -20 8 -5 8 -10 0
-20 -8 -10 -8 -15 0 -20 8 -5 8 -10 0 -20 -8 -10 -8 -15 0 -20 8 -5 8 -10 0
-20 -8 -10 -8 -15 0 -20 8 -5 8 -10 0 -20 -8 -10 -8 -15 0 -20 8 -5 8 -11 1
-19 -7 -9 -7 -16 0 -23 8 -8 7 -13 -1 -18 -8 -5 -8 -10 0 -20 8 -10 8 -15 0
-20 -8 -5 -8 -10 0 -20 8 -10 8 -15 0 -20 -8 -5 -8 -10 0 -20 8 -10 8 -15 0
-20 -8 -5 -8 -10 0 -20 8 -10 8 -15 0 -20 -8 -5 -8 -10 0 -20 8 -10 8 -15 0
-20 -8 -5 -8 -11 1 -21 8 -10 8 -18 1 -27 -7 -8 -7 -18 -2 -27 13 -20 12 -33
0 -25 -6 4 -7 -2 -2 -17 9 -26 9 -39 0 -53 -4 -6 -3 -17 3 -25 12 -20 11 -33
-1 -25 -6 4 -7 -2 -1 -17 4 -13 7 -33 5 -45 -3 -19 2 -21 46 -25 27 -1 63 0
79 3 16 3 34 2 39 -3 6 -6 13 -5 18 4 13 19 12 918 -1 919 -5 1 -14 1 -19 0
-4 -1 -14 3 -21 9 -9 7 -15 7 -19 1 -8 -12 -75 -9 -95 3 -10 6 -12 5 -7 -2z"/>
</g>
</svg>
