<svg viewBox="0 0 317 106" fill="none" xmlns="http://www.w3.org/2000/svg">
<path d="M291.756 0.0003445H25.2582C24.2867 0.0003445 23.327 0.0003445 22.3581 0.0056445C21.5471 0.0109445 20.7426 0.026341 19.9237 0.0392995C18.1449 0.0602393 16.3703 0.216787 14.6153 0.507581C12.8627 0.804706 11.165 1.36487 9.57967 2.16913C7.99625 2.98019 6.54945 4.03409 5.29173 5.29258C4.02741 6.54753 2.9735 7.99809 2.17053 9.58847C1.36534 11.1757 0.807018 12.8765 0.514849 14.6323C0.219903 16.3858 0.0611895 18.1595 0.0401336 19.9376C0.0155501 20.7501 0.012954 21.5652 0 22.3778V83.6306C0.012954 84.4535 0.0155501 85.2506 0.0401336 86.0737C0.061196 87.8516 0.219909 89.6253 0.514849 91.3787C0.806211 93.1355 1.36456 94.8373 2.17053 96.4251C2.97313 98.0103 4.02719 99.455 5.29173 100.703C6.54468 101.967 7.99242 103.022 9.57967 103.827C11.165 104.633 12.8625 105.196 14.6153 105.498C16.3706 105.787 18.145 105.943 19.9237 105.967C20.7426 105.985 21.5471 105.995 22.3581 105.995C23.3269 106 24.2868 106 25.2582 106H291.756C292.708 106 293.676 106 294.628 105.995C295.435 105.995 296.263 105.985 297.07 105.967C298.845 105.944 300.616 105.788 302.368 105.498C304.126 105.194 305.83 104.631 307.423 103.827C309.009 103.021 310.455 101.967 311.707 100.703C312.968 99.4501 314.025 98.0065 314.837 96.4251C315.637 94.8361 316.19 93.1344 316.477 91.3787C316.773 89.625 316.937 87.8518 316.969 86.0737C316.979 85.2506 316.979 84.4535 316.979 83.6306C317 82.6679 317 81.7104 317 80.7321V25.2711C317 24.3006 317 23.3379 316.979 22.3778C316.979 21.5652 316.979 20.7501 316.969 19.9375C316.937 18.1593 316.773 16.3859 316.477 14.6322C316.189 12.8774 315.636 11.1767 314.837 9.58836C313.202 6.40061 310.609 3.80581 307.423 2.16889C305.83 1.3666 304.126 0.806582 302.368 0.507342C300.617 0.215267 298.845 0.0586651 297.07 0.0389285C296.263 0.0259965 295.435 0.0104675 294.628 0.0053C293.676 0 292.708 0 291.756 0V0.0003445Z" fill="#A6A6A6"/>
<path d="M22.3709 103.683C21.5638 103.683 20.7761 103.672 19.9753 103.654C18.3164 103.633 16.6614 103.488 15.0238 103.222C13.4969 102.959 12.0177 102.47 10.635 101.77C9.265 101.077 8.01545 100.167 6.93422 99.0763C5.83734 97.9985 4.92414 96.7484 4.23081 95.3756C3.52983 93.9939 3.04471 92.5128 2.79235 90.984C2.51983 89.3413 2.37238 87.6803 2.35128 86.0153C2.33449 85.4564 2.3125 83.5956 2.3125 83.5956V22.3791C2.3125 22.3791 2.33592 20.5468 2.35142 20.0085C2.37162 18.3461 2.51821 16.6877 2.78992 15.0475C3.04274 13.5146 3.52824 12.0292 4.22959 10.643C4.92038 9.27111 5.82851 8.02009 6.91878 6.93842C8.00782 5.84646 9.26137 4.93216 10.6337 4.22887C12.0132 3.53161 13.4896 3.0457 15.0135 2.78743C16.6564 2.51863 18.3172 2.3733 19.9819 2.35267L22.3722 2.32031H294.615L297.033 2.35397C298.683 2.37358 300.329 2.51761 301.957 2.78483C303.496 3.04635 304.988 3.53564 306.383 4.23663C309.132 5.65398 311.369 7.89635 312.78 10.6494C313.471 12.0261 313.949 13.4994 314.198 15.0191C314.473 16.6727 314.627 18.3442 314.659 20.0202C314.666 20.7707 314.666 21.5768 314.666 22.3791C314.687 23.3728 314.687 24.3187 314.687 25.2723V80.7333C314.687 81.696 314.687 82.6355 314.666 83.5826C314.666 84.4444 314.666 85.2338 314.656 86.0463C314.625 87.6924 314.474 89.334 314.203 90.9581C313.956 92.4979 313.474 93.9905 312.773 95.3836C312.074 96.7415 311.167 97.9807 310.082 99.0557C309 100.152 307.748 101.067 306.375 101.765C304.984 102.47 303.494 102.961 301.957 103.222C300.319 103.49 298.664 103.634 297.005 103.654C296.229 103.672 295.416 103.683 294.628 103.683L291.756 103.688L22.3709 103.683Z" fill="black"/>
<path d="M65.6153 53.7996C65.6438 51.5877 66.2311 49.419 67.3226 47.4953C68.4141 45.5715 69.9743 43.9551 71.858 42.7966C70.6613 41.087 69.0826 39.68 67.2473 38.6874C65.4119 37.6948 63.3705 37.144 61.2851 37.0788C56.8367 36.6117 52.5241 39.7416 50.2573 39.7416C47.9465 39.7416 44.4564 37.1251 40.698 37.2025C38.267 37.2811 35.8979 37.9882 33.8213 39.2551C31.7447 40.5219 30.0316 42.3053 28.8489 44.4314C23.7256 53.3047 27.5471 66.3454 32.4548 73.518C34.9103 77.0301 37.78 80.9533 41.5349 80.8142C45.2094 80.6618 46.5817 78.4703 51.017 78.4703C55.4112 78.4703 56.6988 80.8142 60.5299 80.7258C64.4727 80.6617 66.9569 77.198 69.3262 73.6525C71.0904 71.15 72.448 68.3841 73.3486 65.4574C71.0579 64.4882 69.1031 62.8659 67.7279 60.7928C66.3527 58.7198 65.618 56.2876 65.6153 53.7996Z" fill="white"/>
<path d="M58.3797 32.3595C60.5295 29.7779 61.5886 26.4596 61.3321 23.1094C58.0477 23.4545 55.0138 25.0247 52.835 27.5073C51.7697 28.7202 50.9538 30.1311 50.4339 31.6596C49.914 33.188 49.7004 34.8039 49.8052 36.415C51.448 36.4319 53.0732 36.0758 54.5585 35.3733C56.0437 34.6708 57.3503 33.6403 58.3797 32.3595Z" fill="white"/>
<path d="M112.063 71.9194H99.5235L96.5123 80.814H91.2012L103.078 47.9062H108.596L120.473 80.814H115.071L112.063 71.9194ZM100.822 67.815H110.762L105.862 53.3797H105.725L100.822 67.815Z" fill="white"/>
<path d="M146.124 68.8232C146.124 76.279 142.134 81.0691 136.114 81.0691C134.59 81.1489 133.073 80.7975 131.738 80.0552C130.404 79.3128 129.305 78.2095 128.568 76.8715H128.454V88.7551H123.531V56.8258H128.297V60.8163H128.387C129.158 59.4848 130.275 58.3872 131.62 57.6403C132.965 56.8934 134.487 56.5251 136.024 56.5747C142.111 56.5748 146.124 61.3882 146.124 68.8232ZM141.063 68.8232C141.063 63.9658 138.554 60.7723 134.725 60.7723C130.964 60.7723 128.434 64.0331 128.434 68.8232C128.434 73.6574 130.964 76.8949 134.725 76.8949C138.554 76.8949 141.063 73.7247 141.063 68.8232Z" fill="white"/>
<path d="M172.52 68.8232C172.52 76.2789 168.531 81.0691 162.511 81.0691C160.986 81.1489 159.469 80.7975 158.135 80.0551C156.8 79.3128 155.702 78.2095 154.965 76.8715H154.851V88.7551H149.928V56.8257H154.693V60.8163H154.783C155.554 59.4847 156.671 58.3871 158.016 57.6403C159.361 56.8934 160.883 56.5251 162.42 56.5747C168.508 56.5747 172.52 61.3882 172.52 68.8232ZM167.46 68.8232C167.46 63.9658 164.95 60.7723 161.122 60.7723C157.36 60.7723 154.83 64.033 154.83 68.8232C154.83 73.6574 157.36 76.8949 161.122 76.8949C164.95 76.8949 167.46 73.7247 167.46 68.8232H167.46Z" fill="white"/>
<path d="M189.967 71.6469C190.332 74.9102 193.501 77.0529 197.832 77.0529C201.981 77.0529 204.967 74.9101 204.967 71.9676C204.967 69.4134 203.166 67.884 198.903 66.8359L194.639 65.8085C188.599 64.3489 185.794 61.5229 185.794 56.9372C185.794 51.2593 190.741 47.3594 197.764 47.3594C204.716 47.3594 209.481 51.2593 209.641 56.9372H204.672C204.374 53.6531 201.66 51.6708 197.695 51.6708C193.729 51.6708 191.015 53.6764 191.015 56.5956C191.015 58.9221 192.748 60.2911 196.988 61.3391L200.613 62.2293C207.362 63.826 210.166 66.5382 210.166 71.3516C210.166 77.5082 205.264 81.3642 197.467 81.3642C190.172 81.3642 185.246 77.5988 184.928 71.6466L189.967 71.6469Z" fill="white"/>
<path d="M220.791 51.1484V56.8263H225.352V60.7262H220.791V73.9529C220.791 76.0077 221.704 76.9652 223.709 76.9652C224.251 76.9558 224.791 76.9178 225.329 76.8513V80.728C224.427 80.8964 223.511 80.9727 222.594 80.9557C217.738 80.9557 215.845 79.1312 215.845 74.4782V60.7262H212.357V56.8263H215.845V51.1484H220.791Z" fill="white"/>
<path d="M227.994 68.8237C227.994 61.2749 232.439 56.5312 239.369 56.5312C246.323 56.5312 250.747 61.2747 250.747 68.8237C250.747 76.3933 246.346 81.1162 239.369 81.1162C232.394 81.1162 227.994 76.3933 227.994 68.8237ZM245.731 68.8237C245.731 63.6454 243.358 60.5891 239.369 60.5891C235.38 60.5891 233.01 63.6686 233.01 68.8237C233.01 74.0228 235.38 77.0558 239.369 77.0558C243.358 77.0558 245.73 74.0228 245.73 68.8237H245.731Z" fill="white"/>
<path d="M254.805 56.8255H259.5V60.9092H259.614C259.932 59.6338 260.679 58.5067 261.729 57.7173C262.78 56.9279 264.07 56.5243 265.383 56.5745C265.95 56.5725 266.516 56.6341 267.07 56.7582V61.3647C266.353 61.1457 265.606 61.0452 264.858 61.0671C264.143 61.0381 263.43 61.1642 262.768 61.4368C262.106 61.7095 261.511 62.1222 261.023 62.6466C260.536 63.171 260.168 63.7947 259.944 64.4749C259.721 65.1551 259.647 65.8756 259.728 66.587V80.8178H254.805L254.805 56.8255Z" fill="white"/>
<path d="M289.768 73.7718C289.106 78.1272 284.865 81.1162 279.441 81.1162C272.463 81.1162 268.133 76.4399 268.133 68.9376C268.133 61.412 272.487 56.5312 279.234 56.5312C285.869 56.5312 290.042 61.0911 290.042 68.3657V70.053H273.102V70.3506C273.024 71.2336 273.135 72.1231 273.427 72.96C273.718 73.797 274.185 74.5623 274.795 75.205C275.406 75.8478 276.145 76.3533 276.966 76.688C277.787 77.0227 278.669 77.179 279.554 77.1464C280.718 77.2554 281.885 76.9859 282.883 76.3778C283.881 75.7698 284.656 74.8558 285.093 73.7717L289.768 73.7718ZM273.126 66.6111H285.116C285.161 65.8171 285.04 65.0226 284.763 64.2774C284.486 63.5322 284.057 62.8524 283.505 62.2806C282.953 61.7089 282.288 61.2575 281.553 60.9548C280.818 60.6521 280.028 60.5047 279.234 60.5218C278.432 60.517 277.637 60.6711 276.895 60.9751C276.153 61.2792 275.479 61.7272 274.911 62.2934C274.343 62.8595 273.893 63.5325 273.587 64.2736C273.28 65.0147 273.124 65.8091 273.126 66.6111V66.6111Z" fill="white"/>
<path d="M96.1843 34.6948C96.3913 36.1958 97.8581 37.1494 99.9742 37.1494C101.946 37.1494 103.392 36.1311 103.392 34.7285C103.392 33.5225 102.471 32.7993 100.378 32.3062L98.3417 31.8133C95.4831 31.1443 94.1793 29.7637 94.1793 27.4411C94.1793 24.6241 96.4791 22.7506 99.9301 22.7506C101.286 22.5992 102.647 22.9917 103.715 23.8419C104.783 24.6922 105.47 25.931 105.627 27.2871H103.236C103.079 26.5449 102.648 25.8891 102.029 25.4505C101.41 25.0119 100.649 24.8226 99.8967 24.9204C97.9564 24.9204 96.6655 25.852 96.6655 27.2766C96.6655 28.405 97.4985 29.0519 99.5578 29.5333L101.299 29.9616C104.54 30.7172 105.878 32.0319 105.878 34.4102C105.878 37.4341 103.534 39.3297 99.7881 39.3297C96.2827 39.3297 93.9259 37.5221 93.75 34.6949L96.1843 34.6948Z" fill="white"/>
<path d="M112.346 24.0469V27.0721H114.931V29.0557H112.346V35.1916C112.346 36.4416 112.861 36.9889 114.033 36.9889C114.333 36.988 114.633 36.9698 114.931 36.9346V38.8962C114.508 38.9718 114.079 39.0121 113.65 39.0165C111.032 39.0165 109.989 38.0952 109.989 35.7946V29.0556H108.096V27.072H109.989V24.0469H112.346Z" fill="white"/>
<path d="M117.729 23.4835C117.711 23.1785 117.785 22.8751 117.941 22.6125C118.097 22.3499 118.329 22.1404 118.606 22.0109C118.882 21.8814 119.191 21.8381 119.493 21.8864C119.795 21.9347 120.075 22.0725 120.297 22.282C120.52 22.4914 120.674 22.7629 120.74 23.0611C120.807 23.3593 120.782 23.6707 120.67 23.9548C120.557 24.2388 120.362 24.4826 120.109 24.6544C119.857 24.8262 119.558 24.9182 119.253 24.9185C119.058 24.9285 118.863 24.8988 118.679 24.8314C118.496 24.7639 118.328 24.6601 118.185 24.526C118.043 24.392 117.929 24.2305 117.851 24.0514C117.772 23.8722 117.731 23.6791 117.729 23.4835ZM118.081 27.0121H120.425V38.9449H118.081L118.081 27.0121Z" fill="white"/>
<path d="M123.541 35.5775C123.541 33.4296 125.14 32.1913 127.978 32.0153L131.209 31.829V30.799C131.209 29.5387 130.376 28.827 128.767 28.827C127.453 28.827 126.542 29.3097 126.281 30.1533H124.002C124.242 28.1037 126.169 26.7891 128.875 26.7891C131.866 26.7891 133.553 28.2784 133.553 30.799V38.9521H131.286V37.2752H131.1C130.722 37.8767 130.191 38.3671 129.562 38.6963C128.932 39.0254 128.227 39.1816 127.517 39.1487C127.016 39.2008 126.51 39.1474 126.031 38.9919C125.553 38.8363 125.112 38.5821 124.737 38.2456C124.362 37.9092 124.062 37.4979 123.856 37.0383C123.65 36.5788 123.543 36.0812 123.541 35.5775ZM131.209 34.5579V33.5603L128.296 33.7466C126.653 33.8566 125.908 34.4155 125.908 35.4675C125.908 36.5415 126.839 37.1665 128.12 37.1665C128.495 37.2045 128.874 37.1666 129.235 37.055C129.595 36.9435 129.929 36.7606 130.217 36.5172C130.505 36.2738 130.742 35.9749 130.912 35.6383C131.082 35.3017 131.183 34.9343 131.209 34.5579Z" fill="white"/>
<path d="M137.348 22.3594H139.681V28.9352H139.867C140.18 28.248 140.698 27.6741 141.348 27.2915C141.999 26.909 142.752 26.7365 143.505 26.7976C144.082 26.7662 144.659 26.8626 145.195 27.08C145.731 27.2974 146.212 27.6305 146.605 28.0554C146.997 28.4803 147.291 28.9866 147.465 29.5381C147.639 30.0897 147.69 30.6729 147.613 31.2462V38.9504H145.256V31.8272C145.256 29.9212 144.369 28.9559 142.705 28.9559C142.301 28.9227 141.894 28.9783 141.513 29.1189C141.132 29.2595 140.786 29.4817 140.5 29.7698C140.214 30.058 139.995 30.4052 139.857 30.7871C139.719 31.1691 139.666 31.5766 139.702 31.9811V38.9503H137.348L137.348 22.3594Z" fill="white"/>
<path d="M151.254 27.0155H153.52V28.9111H153.696C153.994 28.2303 154.498 27.6596 155.136 27.2785C155.774 26.8974 156.515 26.725 157.256 26.7852C157.836 26.7415 158.419 26.8291 158.961 27.0413C159.503 27.2536 159.99 27.5851 160.387 28.0113C160.783 28.4376 161.079 28.9476 161.252 29.5036C161.424 30.0597 161.47 30.6474 161.385 31.2234V38.9482H159.03V31.8148C159.03 29.8972 158.197 28.9435 156.456 28.9435C156.062 28.9251 155.669 28.9922 155.303 29.1402C154.937 29.2881 154.608 29.5134 154.337 29.8007C154.067 30.0879 153.862 30.4302 153.736 30.8042C153.61 31.1782 153.566 31.575 153.608 31.9674V38.9483H151.254V27.0155Z" fill="white"/>
<path d="M175.085 38.9484H172.816V37.0528H172.629C172.327 37.7406 171.817 38.316 171.17 38.6976C170.523 39.0791 169.772 39.2474 169.024 39.1787C168.448 39.2197 167.869 39.1308 167.331 38.9188C166.793 38.7067 166.309 38.3768 165.915 37.9533C165.521 37.5297 165.227 37.0233 165.054 36.4712C164.881 35.919 164.834 35.3352 164.916 34.7625V27.0156H167.273V34.1491C167.273 36.0771 168.049 36.9984 169.78 36.9984C170.181 37.0365 170.586 36.9846 170.965 36.8463C171.343 36.708 171.687 36.487 171.969 36.1992C172.251 35.9115 172.466 35.5643 172.597 35.183C172.729 34.8017 172.773 34.3959 172.728 33.9952V27.0156H175.085V38.9484Z" fill="white"/>
<path d="M182.022 24.045V27.0703H184.606V29.0539H182.022V35.1898C182.022 36.4397 182.537 36.9871 183.708 36.9871C184.008 36.9861 184.308 36.9679 184.606 36.9327V38.8943C184.183 38.9701 183.755 39.0103 183.326 39.0146C180.708 39.0146 179.665 38.0933 179.665 35.7927V29.0538H177.771V27.0701H179.665V24.045H182.022ZM185.538 20.0234L184.989 25.4476H183.357V20.0234H185.538Z" fill="white"/>
<path d="M194.184 27.0155H196.45V28.9111H196.626C196.924 28.2303 197.427 27.6596 198.066 27.2785C198.704 26.8974 199.445 26.725 200.185 26.7852C200.766 26.7415 201.349 26.8291 201.891 27.0413C202.433 27.2536 202.92 27.5851 203.316 28.0113C203.713 28.4376 204.009 28.9476 204.181 29.5036C204.354 30.0597 204.399 30.6474 204.314 31.2234V38.9482H201.96V31.8148C201.96 29.8972 201.127 28.9435 199.386 28.9435C198.992 28.9251 198.599 28.9922 198.233 29.1402C197.867 29.2881 197.538 29.5134 197.267 29.8007C196.997 30.0879 196.791 30.4302 196.665 30.8042C196.54 31.1782 196.496 31.575 196.538 31.9674V38.9483H194.184V27.0155Z" fill="white"/>
<path d="M207.275 35.5775C207.275 33.4296 208.874 32.1913 211.712 32.0153L214.943 31.829V30.799C214.943 29.5387 214.11 28.827 212.501 28.827C211.187 28.827 210.276 29.3097 210.015 30.1533H207.736C207.976 28.1037 209.904 26.7891 212.61 26.7891C215.6 26.7891 217.287 28.2784 217.287 30.799V38.9521H215.021V37.2752H214.835C214.457 37.8767 213.926 38.3671 213.296 38.6963C212.667 39.0254 211.961 39.1816 211.252 39.1487C210.751 39.2008 210.245 39.1474 209.766 38.9919C209.287 38.8363 208.846 38.5821 208.471 38.2456C208.097 37.9092 207.797 37.4979 207.591 37.0383C207.385 36.5788 207.277 36.0812 207.275 35.5775ZM214.943 34.5579V33.5603L212.03 33.7466C210.388 33.8566 209.642 34.4155 209.642 35.4675C209.642 36.5415 210.574 37.1665 211.854 37.1665C212.23 37.2045 212.609 37.1666 212.969 37.055C213.329 36.9435 213.663 36.7606 213.952 36.5172C214.24 36.2738 214.476 35.9749 214.646 35.6383C214.817 35.3017 214.918 34.9343 214.943 34.5579Z" fill="white"/>
</svg>
