<svg viewBox="0 0 330 104" fill="none" xmlns="http://www.w3.org/2000/svg">
<g clip-path="url(#clip0_2253_30073)">
<path d="M317.778 0H12.2222C5.47207 0 0 5.8203 0 13V91C0 98.1797 5.47207 104 12.2222 104H317.778C324.528 104 330 98.1797 330 91V13C330 5.8203 324.528 0 317.778 0Z" fill="black"/>
<path d="M317.778 2.08C320.501 2.08 323.112 3.2305 325.037 5.27839C326.963 7.32629 328.044 10.1038 328.044 13V91C328.044 93.8962 326.963 96.6737 325.037 98.7216C323.112 100.77 320.501 101.92 317.778 101.92H12.2222C9.49933 101.92 6.88797 100.77 4.96259 98.7216C3.03722 96.6737 1.95556 93.8962 1.95556 91V13C1.95556 10.1038 3.03722 7.32629 4.96259 5.27839C6.88797 3.2305 9.49933 2.08 12.2222 2.08H317.778ZM317.778 0H12.2222C8.98069 0 5.87192 1.36964 3.57981 3.80761C1.28769 6.24558 0 9.55219 0 13V91C0 94.4478 1.28769 97.7544 3.57981 100.192C5.87192 102.63 8.98069 104 12.2222 104H317.778C321.019 104 324.128 102.63 326.42 100.192C328.712 97.7544 330 94.4478 330 91V13C330 9.55219 328.712 6.24558 326.42 3.80761C324.128 1.36964 321.019 0 317.778 0Z" fill="#A6A6A6"/>
<path d="M166.563 56.5533C164.503 56.5585 162.492 57.2131 160.782 58.4344C159.072 59.6557 157.741 61.3889 156.957 63.4147C156.174 65.4406 155.972 67.6681 156.379 69.8156C156.786 71.9631 157.782 73.9342 159.241 75.4796C160.701 77.0249 162.559 78.0752 164.58 78.4975C166.601 78.9198 168.694 78.6953 170.595 77.8522C172.496 77.0091 174.119 75.5855 175.259 73.7612C176.4 71.9369 177.006 69.7939 177.001 67.6033C177.021 66.1419 176.764 64.6913 176.246 63.3376C175.728 61.984 174.959 60.7551 173.985 59.724C173.011 58.693 171.852 57.881 170.577 57.3362C169.302 56.7915 167.937 56.5253 166.563 56.5533ZM166.563 74.3113C165.301 74.4052 164.041 74.093 162.948 73.4153C161.854 72.7376 160.978 71.7258 160.432 70.5113C159.887 69.2968 159.697 67.9358 159.889 66.6053C160.08 65.2748 160.643 64.0363 161.505 63.0508C162.367 62.0653 163.488 61.3784 164.722 61.0793C165.956 60.7803 167.245 60.8829 168.424 61.3739C169.602 61.8649 170.614 62.7216 171.328 63.8326C172.043 64.9435 172.427 66.2573 172.43 67.6033C172.469 68.4562 172.347 69.3087 172.072 70.1108C171.797 70.9129 171.373 71.6482 170.826 72.2734C170.28 72.8986 169.621 73.401 168.888 73.751C168.156 74.101 167.366 74.2915 166.563 74.3113ZM143.781 56.5533C141.721 56.5585 139.709 57.2131 138 58.4344C136.29 59.6557 134.959 61.3889 134.175 63.4147C133.392 65.4406 133.19 67.6681 133.597 69.8156C134.003 71.9631 134.999 73.9342 136.459 75.4796C137.919 77.0249 139.777 78.0752 141.798 78.4975C143.819 78.9198 145.912 78.6953 147.813 77.8522C149.714 77.0091 151.337 75.5855 152.477 73.7612C153.617 71.9369 154.223 69.7939 154.219 67.6033C154.238 66.1419 153.982 64.6913 153.464 63.3376C152.945 61.984 152.177 60.7551 151.203 59.724C150.229 58.693 149.07 57.881 147.795 57.3362C146.52 56.7915 145.155 56.5253 143.781 56.5533ZM143.781 74.3113C142.518 74.4052 141.259 74.093 140.165 73.4153C139.072 72.7376 138.196 71.7258 137.65 70.5113C137.105 69.2968 136.915 67.9358 137.107 66.6053C137.298 65.2748 137.861 64.0363 138.723 63.0508C139.585 62.0653 140.706 61.3784 141.94 61.0793C143.173 60.7803 144.463 60.8829 145.641 61.3739C146.82 61.8649 147.832 62.7216 148.546 63.8326C149.261 64.9435 149.644 66.2573 149.647 67.6033C149.687 68.4562 149.565 69.3087 149.29 70.1108C149.015 70.9129 148.591 71.6482 148.044 72.2734C147.497 72.8986 146.838 73.401 146.106 73.751C145.374 74.101 144.583 74.2915 143.781 74.3113ZM116.696 59.9593V64.6393H127.256C127.091 66.8436 126.229 68.9236 124.812 70.5413C123.753 71.6892 122.479 72.5879 121.072 73.1791C119.666 73.7703 118.158 74.0408 116.647 73.9733C113.536 73.9733 110.551 72.6585 108.351 70.318C106.15 67.9776 104.914 64.8032 104.914 61.4933C104.914 58.1834 106.15 55.0091 108.351 52.6686C110.551 50.3282 113.536 49.0133 116.647 49.0133C119.631 48.9661 122.511 50.1712 124.665 52.3673L127.77 49.0653C126.313 47.5326 124.583 46.3246 122.681 45.5121C120.78 44.6995 118.745 44.2988 116.696 44.3333C114.523 44.2434 112.355 44.6209 110.323 45.4434C108.29 46.2659 106.434 47.5164 104.867 49.1199C103.3 50.7235 102.053 52.6471 101.201 54.7754C100.349 56.9038 99.9102 59.1932 99.9102 61.5063C99.9102 63.8195 100.349 66.1088 101.201 68.2372C102.053 70.3656 103.3 72.2892 104.867 73.8927C106.434 75.4962 108.29 76.7467 110.323 77.5692C112.355 78.3917 114.523 78.7693 116.696 78.6793C118.787 78.7681 120.872 78.3855 122.814 77.5565C124.757 76.7275 126.512 75.471 127.965 73.8693C130.532 70.87 131.9 66.9252 131.779 62.8713C131.787 61.8956 131.714 60.921 131.559 59.9593H116.696ZM227.454 63.5993C226.817 61.6044 225.624 59.8626 224.036 58.6043C222.447 57.3461 220.536 56.6309 218.556 56.5533C217.219 56.5505 215.896 56.8395 214.668 57.4023C213.44 57.9651 212.333 58.7898 211.417 59.8255C210.501 60.8612 209.794 62.0857 209.34 63.4235C208.886 64.7613 208.695 66.1839 208.779 67.6033C208.758 69.9767 209.459 72.2936 210.778 74.208C212.098 76.1224 213.964 77.5314 216.098 78.2247C218.232 78.918 220.52 78.8583 222.619 78.0546C224.719 77.2508 226.518 75.7462 227.747 73.7653L224.203 71.1653C223.675 72.102 222.925 72.8756 222.029 73.4092C221.133 73.9428 220.121 74.2179 219.094 74.2073C218.035 74.2538 216.987 73.9584 216.088 73.3598C215.189 72.7612 214.482 71.8874 214.059 70.8533L227.967 64.7433L227.454 63.5993ZM213.276 67.2913C213.227 66.4837 213.329 65.6737 213.578 64.9087C213.826 64.1437 214.216 63.4392 214.723 62.8363C215.231 62.2334 215.846 61.7443 216.534 61.3976C217.222 61.0509 217.967 60.8536 218.727 60.8173C219.515 60.7662 220.299 60.9634 220.982 61.3843C221.665 61.8052 222.215 62.431 222.565 63.1833L213.276 67.2913ZM201.983 78.0033H206.554V45.5033H201.983V78.0033ZM194.503 59.0233H194.332C193.649 58.1961 192.806 57.5356 191.861 57.0869C190.916 56.6381 189.891 56.4118 188.856 56.4233C186.185 56.5611 183.666 57.7868 181.821 59.8464C179.976 61.906 178.947 64.6417 178.947 67.4863C178.947 70.331 179.976 73.0666 181.821 75.1262C183.666 77.1858 186.185 78.4115 188.856 78.5493C189.893 78.5714 190.921 78.3498 191.867 77.9004C192.814 77.4509 193.655 76.7847 194.332 75.9493H194.503V77.5353C194.503 81.7733 192.376 84.0353 188.954 84.0353C187.811 84.0086 186.701 83.6211 185.765 82.9221C184.829 82.2231 184.11 81.2441 183.699 80.1093L179.739 81.8513C180.471 83.8072 181.744 85.4806 183.389 86.6505C185.035 87.8204 186.975 88.4316 188.954 88.4033C194.307 88.4033 198.732 85.0493 198.732 76.8853V57.2033H194.503V59.0233ZM189.247 74.3113C187.646 74.2051 186.143 73.4535 185.044 72.2096C183.945 70.9658 183.333 69.3231 183.333 67.6163C183.333 65.9095 183.945 64.2669 185.044 63.023C186.143 61.7791 187.646 61.0275 189.247 60.9213C190.03 60.9572 190.798 61.1603 191.506 61.5184C192.213 61.8765 192.846 62.3822 193.366 63.0057C193.886 63.6291 194.283 64.3574 194.533 65.1472C194.782 65.9371 194.88 66.7724 194.821 67.6033C194.887 68.4371 194.794 69.2766 194.547 70.0711C194.3 70.8656 193.904 71.5985 193.383 72.2256C192.862 72.8526 192.227 73.3608 191.516 73.7193C190.805 74.0778 190.034 74.2792 189.247 74.3113ZM248.867 45.5033H237.916V78.0033H242.487V65.6793H248.867C250.17 65.7789 251.478 65.5919 252.71 65.13C253.942 64.6681 255.071 63.9413 256.027 62.9948C256.983 62.0483 257.746 60.9024 258.267 59.6287C258.789 58.3549 259.058 56.9806 259.058 55.5913C259.058 54.2021 258.789 52.8277 258.267 51.554C257.746 50.2802 256.983 49.1343 256.027 48.1878C255.071 47.2413 253.942 46.5145 252.71 46.0526C251.478 45.5908 250.17 45.4038 248.867 45.5033ZM248.867 61.1033H242.487V50.0273H248.965C249.652 50.0273 250.332 50.1712 250.967 50.4508C251.602 50.7305 252.178 51.1403 252.664 51.657C253.15 52.1736 253.535 52.787 253.798 53.4621C254.061 54.1371 254.196 54.8606 254.196 55.5913C254.196 56.322 254.061 57.0455 253.798 57.7206C253.535 58.3956 253.15 59.009 252.664 59.5257C252.178 60.0423 251.602 60.4522 250.967 60.7318C250.332 61.0114 249.652 61.1553 248.965 61.1553L248.867 61.1033ZM277.076 56.4493C275.412 56.3401 273.753 56.7523 272.307 57.635C270.86 58.5176 269.688 59.8319 268.936 61.4153L272.97 63.2093C273.377 62.4278 273.989 61.7884 274.731 61.3686C275.472 60.9487 276.312 60.7663 277.15 60.8433C277.73 60.7712 278.318 60.8228 278.879 60.995C279.441 61.1671 279.964 61.4565 280.419 61.8462C280.874 62.2358 281.252 62.718 281.53 63.2645C281.808 63.811 281.981 64.411 282.039 65.0293V65.3413C280.569 64.5195 278.932 64.0911 277.272 64.0933C272.921 64.0933 268.472 66.6933 268.472 71.4253C268.515 72.4311 268.748 73.4174 269.156 74.3257C269.564 75.234 270.14 76.0458 270.849 76.7127C271.559 77.3797 272.386 77.8882 273.284 78.2082C274.181 78.5282 275.13 78.653 276.074 78.5753C277.221 78.6428 278.364 78.3846 279.387 77.8272C280.409 77.2698 281.274 76.4333 281.892 75.4033H282.039V78.0033H286.439V65.4973C286.439 59.8033 282.381 56.5013 277.174 56.5013L277.076 56.4493ZM276.514 74.2593C275.023 74.2593 272.945 73.4533 272.945 71.5033C272.945 68.9033 275.536 68.0193 277.834 68.0193C279.286 67.9812 280.721 68.3583 281.99 69.1113C281.836 70.5233 281.207 71.8282 280.218 72.7844C279.229 73.7405 277.948 74.283 276.612 74.3113L276.514 74.2593ZM302.474 57.2033L297.243 71.2953H297.096L291.67 57.2033H286.781L294.921 76.9113L290.276 87.8573H295.043L307.559 57.2033H302.474ZM261.407 78.0033H265.954V45.5033H261.407V78.0033Z" fill="white"/>
<path d="M25.5188 19.6039C24.7133 20.6169 24.3022 21.9191 24.3699 23.2439V80.7559C24.2867 82.0829 24.6996 83.3911 25.5188 84.3959L25.6899 84.6039L55.9766 52.3899V51.6099L25.6899 19.4219L25.5188 19.6039Z" fill="url(#paint0_linear_2253_30073)"/>
<path d="M65.9988 63.131L55.9766 52.393V51.613L65.9988 40.875L66.2188 41.031L78.221 48.259C81.6432 50.313 81.6432 53.693 78.221 55.773L66.2677 63.001L65.9988 63.131Z" fill="url(#paint1_linear_2253_30073)"/>
<path d="M66.2929 62.972L55.9773 52L25.5195 84.396C26.2103 85.05 27.0944 85.4262 28.0186 85.4594C28.9428 85.4927 29.8488 85.1808 30.5795 84.578L66.2929 62.972Z" fill="url(#paint2_linear_2253_30073)"/>
<path d="M66.2929 41.0307L30.5795 19.4507C29.8536 18.8395 28.9483 18.5201 28.0228 18.5486C27.0973 18.5772 26.211 18.9518 25.5195 19.6068L55.9773 52.0027L66.2929 41.0307Z" fill="url(#paint3_linear_2253_30073)"/>
<path opacity="0.2" d="M65.9995 62.7344L30.5795 84.1844C29.8754 84.7496 29.0173 85.0554 28.1351 85.0554C27.2529 85.0554 26.3948 84.7496 25.6906 84.1844L25.5195 84.3664L25.6906 84.5744C26.3948 85.1396 27.2529 85.4454 28.1351 85.4454C29.0173 85.4454 29.8754 85.1396 30.5795 84.5744L66.2929 62.9684L65.9995 62.7344Z" fill="black"/>
<path opacity="0.12" d="M25.5193 84.0332C24.7341 83.0019 24.3493 81.6904 24.4437 80.3672V80.7572C24.3605 82.0842 24.7734 83.3924 25.5926 84.3972L25.7637 84.2152L25.5193 84.0332Z" fill="black"/>
<path opacity="0.12" d="M78.2222 55.38L66 62.738L66.22 62.972L78.2222 55.744C78.9307 55.4254 79.5453 54.9094 80.0013 54.2506C80.4573 53.5917 80.7378 52.8142 80.8133 52C80.6605 52.7399 80.3464 53.4312 79.8963 54.0183C79.4463 54.6054 78.8728 55.0718 78.2222 55.38Z" fill="black"/>
<path opacity="0.25" d="M30.58 19.8114L78.2222 48.6194C78.8728 48.9275 79.4463 49.394 79.8963 49.9811C80.3464 50.5681 80.6605 51.2595 80.8133 51.9994C80.7378 51.1852 80.4573 50.4077 80.0013 49.7488C79.5453 49.0899 78.9307 48.574 78.2222 48.2554L30.58 19.4474C27.1822 17.3674 24.3711 19.0834 24.3711 23.2434V23.6334C24.4444 19.4734 27.1822 17.7574 30.58 19.8114Z" fill="white"/>
<path d="M106.797 33.8031H104.915V20.1271H100.809V18.2031H110.904V20.1271H106.797V33.8031Z" fill="white" stroke="white" stroke-width="0.2" stroke-miterlimit="10"/>
<path d="M121.831 20.1271H115.158V25.0671H121.171V26.9391H115.158V31.8791H121.831V33.8031H113.275V18.2031H121.831V20.1271Z" fill="white" stroke="white" stroke-width="0.2" stroke-miterlimit="10"/>
<path d="M124.787 33.796V18.196H129.676C130.873 18.1742 132.031 18.6499 132.903 19.522C133.378 19.9176 133.764 20.4223 134.031 20.9986C134.297 21.5749 134.438 22.2078 134.443 22.85C134.442 23.9082 134.087 24.9315 133.44 25.736C132.812 26.5317 131.952 27.0808 130.996 27.296L134.932 33.796H132.707L128.747 27.478H126.669V33.796H124.787ZM126.669 25.606H129.7C130.415 25.6215 131.107 25.3419 131.632 24.826C131.891 24.5771 132.097 24.2719 132.236 23.9311C132.375 23.5902 132.444 23.2216 132.438 22.85C132.432 22.1456 132.179 21.469 131.729 20.952C131.488 20.6741 131.192 20.4556 130.862 20.3119C130.533 20.1682 130.178 20.1027 129.823 20.12H126.669V25.606Z" fill="white" stroke="white" stroke-width="0.2" stroke-miterlimit="10"/>
<path d="M135.812 33.8031L141.337 18.2031H143.464L149.11 33.8031H146.91L145.493 29.5651H139.333L137.89 33.8031H135.812ZM139.968 27.6931H144.857L142.413 20.6731L139.968 27.6931Z" fill="white" stroke="white" stroke-width="0.2" stroke-miterlimit="10"/>
<path d="M150.309 33.8031V31.7231L158.106 20.1271H150.626V18.2031H160.404V20.2831L152.606 31.8791H160.477V33.8031H150.309Z" fill="white" stroke="white" stroke-width="0.2" stroke-miterlimit="10"/>
<path d="M168.006 33.8031V18.2031H170.304L177.417 30.3451V27.3291V18.2031H179.324V33.8031H177.344L170.01 21.0891V24.0791V33.8031H168.006Z" fill="white" stroke="white" stroke-width="0.2" stroke-miterlimit="10"/>
<path d="M181.451 33.8031L186.976 18.2031H189.102L194.627 33.8031H192.549L191.131 29.5651H184.971L183.529 33.8031H181.451ZM185.607 27.6931H190.496L188.051 20.6731L185.607 27.6931Z" fill="white" stroke="white" stroke-width="0.2" stroke-miterlimit="10"/>
</g>
<defs>
<linearGradient id="paint0_linear_2253_30073" x1="53.2877" y1="22.6459" x2="9.74256" y2="63.5857" gradientUnits="userSpaceOnUse">
<stop stop-color="#00A0FF"/>
<stop offset="0.01" stop-color="#00A1FF"/>
<stop offset="0.26" stop-color="#00BEFF"/>
<stop offset="0.51" stop-color="#00D2FF"/>
<stop offset="0.76" stop-color="#00DFFF"/>
<stop offset="1" stop-color="#00E3FF"/>
</linearGradient>
<linearGradient id="paint1_linear_2253_30073" x1="82.6943" y1="52.003" x2="23.5632" y2="52.003" gradientUnits="userSpaceOnUse">
<stop stop-color="#FFE000"/>
<stop offset="0.41" stop-color="#FFBD00"/>
<stop offset="0.78" stop-color="#FFA500"/>
<stop offset="1" stop-color="#FF9C00"/>
</linearGradient>
<linearGradient id="paint2_linear_2253_30073" x1="60.6951" y1="57.98" x2="1.63312" y2="113.484" gradientUnits="userSpaceOnUse">
<stop stop-color="#FF3A44"/>
<stop offset="1" stop-color="#C31162"/>
</linearGradient>
<linearGradient id="paint3_linear_2253_30073" x1="17.844" y1="0.470756" x2="44.2098" y2="25.2591" gradientUnits="userSpaceOnUse">
<stop stop-color="#32A071"/>
<stop offset="0.07" stop-color="#2DA771"/>
<stop offset="0.48" stop-color="#15CF74"/>
<stop offset="0.8" stop-color="#06E775"/>
<stop offset="1" stop-color="#00F076"/>
</linearGradient>
<clipPath id="clip0_2253_30073">
<rect width="330" height="104" fill="white"/>
</clipPath>
</defs>
</svg>
