<svg viewBox="0 0 1393 874" fill="none" xmlns="http://www.w3.org/2000/svg">
<g opacity="0.5">
<g opacity="0.7">
<path fill-rule="evenodd" clip-rule="evenodd" d="M108.773 52.7336C107.794 52.7336 107 51.9501 107 50.984C107 50.0179 107.794 49.2344 108.773 49.2344C109.752 49.2344 110.546 50.0179 110.546 50.984C110.546 51.9501 109.752 52.7336 108.773 52.7336Z" stroke="#8B8B8B" stroke-width="1.5" stroke-linecap="round" stroke-linejoin="round"/>
<path d="M107 45.7421C111.609 45.0583 114.783 48.1914 114.091 52.7396" stroke="#8B8B8B" stroke-width="1.5" stroke-linecap="round" stroke-linejoin="round"/>
<path d="M107 41.3663C114.056 40.6824 119.215 45.7733 118.522 52.7363" stroke="#8B8B8B" stroke-width="1.5" stroke-linecap="round" stroke-linejoin="round"/>
<path d="M107 36.991C116.504 36.3082 123.646 43.3559 122.954 52.7346" stroke="#8B8B8B" stroke-width="1.5" stroke-linecap="round" stroke-linejoin="round"/>
</g>
<g opacity="0.7">
<path d="M878.217 313.231C879.875 313.231 881.218 311.905 881.218 310.269V303.03C881.218 302.116 880.791 301.253 880.06 300.692L874.057 296.085C872.974 295.253 871.456 295.253 870.372 296.085L864.369 300.692C863.638 301.253 863.211 302.116 863.211 303.03V310.269C863.211 311.905 864.554 313.231 866.212 313.231" stroke="#8B8B8B" stroke-width="1.5" stroke-linecap="round" stroke-linejoin="round"/>
<path d="M878.218 313.228H866.213" stroke="#8B8B8B" stroke-width="1.5" stroke-linecap="round" stroke-linejoin="round"/>
<path d="M870.213 303.359V304.347" stroke="#8B8B8B" stroke-width="1.5" stroke-linecap="round" stroke-linejoin="round"/>
<path d="M874.215 303.359V304.347" stroke="#8B8B8B" stroke-width="1.5" stroke-linecap="round" stroke-linejoin="round"/>
<path d="M875.716 307.984C875.716 307.984 874.403 309.28 872.214 309.28C870.025 309.28 868.713 307.984 868.713 307.984" stroke="#8B8B8B" stroke-width="1.5" stroke-linecap="round" stroke-linejoin="round"/>
</g>
<g opacity="0.7">
<path d="M71.0002 155.961V162.862" stroke="#8B8B8B" stroke-width="1.5" stroke-linecap="round" stroke-linejoin="round"/>
<path d="M64.9983 157.711V171.749" stroke="#8B8B8B" stroke-width="1.5" stroke-linecap="round" stroke-linejoin="round"/>
<path d="M77.0036 163.851V158.533C77.0036 158.107 76.7285 157.73 76.3193 157.596L71.6334 156.055C71.2232 155.919 70.779 155.919 70.3678 156.054L65.6309 157.612C65.2197 157.747 64.7765 157.747 64.3653 157.612L60.3126 156.279C59.6654 156.066 58.9961 156.541 58.9961 157.216V168.41C58.9961 168.784 59.2102 169.125 59.5493 169.293L64.1042 171.54C64.6675 171.819 65.3307 171.819 65.894 171.54L67.9998 170.501" stroke="#8B8B8B" stroke-width="1.5" stroke-linecap="round" stroke-linejoin="round"/>
<path d="M78.0044 172.738L76.1406 170.898" stroke="#8B8B8B" stroke-width="1.5" stroke-linecap="round" stroke-linejoin="round"/>
<path d="M74.0032 165.828C75.6609 165.828 77.0045 167.154 77.0045 168.79C77.0045 170.426 75.6609 171.751 74.0032 171.751C72.3455 171.751 71.002 170.426 71.002 168.79C71.002 167.154 72.3455 165.828 74.0032 165.828" stroke="#8B8B8B" stroke-width="1.5" stroke-linecap="round" stroke-linejoin="round"/>
<path d="M71.0002 155.969V162.869" stroke="#8B8B8B" stroke-width="1.5" stroke-linecap="round" stroke-linejoin="round"/>
<path d="M64.9983 157.719V171.757" stroke="#8B8B8B" stroke-width="1.5" stroke-linecap="round" stroke-linejoin="round"/>
<path d="M77.0036 163.859V158.54C77.0036 158.115 76.7285 157.738 76.3193 157.604L71.6334 156.062C71.2232 155.927 70.779 155.927 70.3678 156.062L65.6309 157.619C65.2197 157.755 64.7765 157.755 64.3653 157.619L60.3126 156.287C59.6654 156.073 58.9961 156.549 58.9961 157.223V168.418C58.9961 168.792 59.2102 169.133 59.5493 169.301L64.1042 171.548C64.6675 171.826 65.3307 171.826 65.894 171.548L67.9998 170.508" stroke="#8B8B8B" stroke-width="1.5" stroke-linecap="round" stroke-linejoin="round"/>
<path d="M78.0044 172.745L76.1406 170.906" stroke="#8B8B8B" stroke-width="1.5" stroke-linecap="round" stroke-linejoin="round"/>
<path d="M74.0032 165.836C75.6609 165.836 77.0045 167.162 77.0045 168.798C77.0045 170.433 75.6609 171.759 74.0032 171.759C72.3455 171.759 71.002 170.433 71.002 168.798C71.002 167.162 72.3455 165.836 74.0032 165.836" stroke="#8B8B8B" stroke-width="1.5" stroke-linecap="round" stroke-linejoin="round"/>
</g>
<g opacity="0.7">
<ellipse cx="1333" cy="620.268" rx="6.50271" ry="6.41692" stroke="#8B8B8B" stroke-width="1.5" stroke-linecap="round" stroke-linejoin="round"/>
<path d="M1325.86 613.359C1322.04 617.197 1322.04 623.343 1325.86 627.18" stroke="#8B8B8B" stroke-width="1.5" stroke-linecap="round" stroke-linejoin="round"/>
<path d="M1340.14 613.359C1343.95 617.197 1343.95 623.343 1340.14 627.18" stroke="#8B8B8B" stroke-width="1.5" stroke-linecap="round" stroke-linejoin="round"/>
<path d="M1331.94 622.863V617.68H1333.5C1334.33 617.68 1335 618.343 1335 619.161V619.161C1335 619.978 1334.33 620.641 1333.5 620.641H1331.94" stroke="#8B8B8B" stroke-width="1.5" stroke-linecap="round" stroke-linejoin="round"/>
</g>
<g opacity="0.7">
<path d="M71.666 428.727V438.02" stroke="#8B8B8B" stroke-width="0.9675" stroke-miterlimit="10" stroke-linecap="round"/>
<path d="M67.207 438.023H76.1014" stroke="#8B8B8B" stroke-width="0.9675" stroke-miterlimit="10" stroke-linecap="round"/>
<path d="M71.6582 431.519L73.8422 430.297" stroke="#8B8B8B" stroke-width="0.9675" stroke-miterlimit="10" stroke-linecap="round"/>
<path d="M71.6575 432.767L69.4688 431.688" stroke="#8B8B8B" stroke-width="0.9675" stroke-miterlimit="10" stroke-linecap="round"/>
<path d="M71.524 434.323C71.0776 434.526 70.252 434.787 69.7576 434.787C67.8904 434.787 66.3736 433.29 66.3736 431.447C66.3736 431.078 66.436 430.713 66.556 430.368C66.6376 430.135 66.5224 429.88 66.292 429.785C65.2936 429.368 64.6504 428.402 64.6504 427.331C64.6504 426.076 65.5528 424.977 66.8008 424.721C67.0504 424.669 67.2184 424.432 67.1704 424.181C67.1512 424.068 67.1416 423.954 67.1416 423.836C67.1416 422.751 68.0344 421.87 69.1336 421.87C69.3256 421.87 69.5176 421.898 69.7 421.95C69.8248 421.988 69.964 421.969 70.0744 421.903C70.1896 421.837 70.2664 421.728 70.2952 421.6C70.42 421.055 70.732 420.558 71.1736 420.207C71.6296 419.843 72.1816 419.648 72.7672 419.648C74.164 419.648 75.3016 420.771 75.3016 422.145C75.3016 422.486 75.2344 422.813 75.1 423.125C75.028 423.286 75.0568 423.476 75.172 423.613C75.2872 423.75 75.4696 423.807 75.6424 423.769C75.7912 423.736 75.94 423.717 76.0936 423.717C77.1928 423.717 78.0856 424.598 78.0856 425.683C78.0856 426.218 77.8696 426.72 77.4808 427.094C77.3896 427.184 77.3368 427.308 77.3368 427.436C77.3368 427.563 77.3896 427.687 77.4856 427.772C78.2632 428.497 78.6904 429.477 78.6904 430.529C78.6904 432.622 76.9672 434.323 74.8456 434.323C74.3752 434.323 73.9096 434.237 73.4728 434.076" stroke="#8B8B8B" stroke-width="0.9675" stroke-miterlimit="10" stroke-linecap="round"/>
<path d="M57.5 436.242H65" stroke="#8B8B8B" stroke-width="0.975" stroke-miterlimit="10" stroke-linecap="round"/>
<path d="M59 434.023H63.5" stroke="#8B8B8B" stroke-width="0.975" stroke-miterlimit="10" stroke-linecap="round"/>
<path d="M58.25 437.724L60.5 434.023" stroke="#8B8B8B" stroke-width="0.975" stroke-miterlimit="10" stroke-linecap="round"/>
<path d="M64.25 437.724L62 434.023" stroke="#8B8B8B" stroke-width="0.975" stroke-miterlimit="10" stroke-linecap="round"/>
</g>
<g opacity="0.7">
<path fill-rule="evenodd" clip-rule="evenodd" d="M1351.5 182.125H1357.5V186.072H1351.5V182.125Z" stroke="#8B8B8B" stroke-width="1.5" stroke-linecap="round" stroke-linejoin="round"/>
<path d="M1352.5 190.025H1356.5" stroke="#8B8B8B" stroke-width="1.5" stroke-linecap="round" stroke-linejoin="round"/>
<path d="M1348.5 195.942V180.153C1348.5 179.063 1349.39 178.18 1350.5 178.18H1358.5C1359.61 178.18 1360.5 179.063 1360.5 180.153V195.942" stroke="#8B8B8B" stroke-width="1.5" stroke-linecap="round" stroke-linejoin="round"/>
<path d="M1364.5 180.156L1365.91 181.552C1366.29 181.922 1366.5 182.424 1366.5 182.947V192.491C1366.5 193.308 1365.83 193.972 1365 193.972V193.972C1364.17 193.972 1363.5 193.308 1363.5 192.491V191.011C1363.5 190.466 1363.05 190.024 1362.5 190.024H1360.5" stroke="#8B8B8B" stroke-width="1.5" stroke-linecap="round" stroke-linejoin="round"/>
<path d="M1366.5 187.057H1364.63C1364.03 187.057 1363.57 186.537 1363.64 185.947L1363.89 183.974C1363.95 183.48 1364.38 183.109 1364.88 183.109H1366.5" stroke="#8B8B8B" stroke-width="1.5" stroke-linecap="round" stroke-linejoin="round"/>
<path d="M1347.5 195.939H1361.5" stroke="#8B8B8B" stroke-width="1.5" stroke-linecap="round" stroke-linejoin="round"/>
</g>
<g opacity="0.7">
<path fill-rule="evenodd" clip-rule="evenodd" d="M1373.5 402.184C1373.5 406.539 1378.51 411.233 1380.34 412.801C1380.72 413.125 1381.28 413.125 1381.66 412.801C1383.49 411.233 1388.5 406.539 1388.5 402.184C1388.5 398.367 1385.14 395.273 1381 395.273C1376.86 395.273 1373.5 398.367 1373.5 402.184Z" stroke="#8B8B8B" stroke-width="1.5" stroke-linecap="round" stroke-linejoin="round"/>
<path d="M1378.38 404.952L1383.58 399.82" stroke="#8B8B8B" stroke-width="1.5" stroke-linecap="round" stroke-linejoin="round"/>
<path d="M1380.98 406.134C1378.89 406.134 1377.18 404.454 1377.18 402.383C1377.18 400.312 1378.89 398.633 1380.98 398.633C1383.08 398.633 1384.78 400.312 1384.78 402.383C1384.78 404.454 1383.08 406.134 1380.98 406.134" stroke="#8B8B8B" stroke-width="1.5" stroke-linecap="round" stroke-linejoin="round"/>
</g>
<path fill-rule="evenodd" clip-rule="evenodd" d="M1090.5 6.90625H1096.5V10.8535H1090.5V6.90625Z" stroke="#8B8B8B" stroke-width="1.5" stroke-linecap="round" stroke-linejoin="round"/>
<path d="M1091.5 14.8059H1095.5" stroke="#8B8B8B" stroke-width="1.5" stroke-linecap="round" stroke-linejoin="round"/>
<path d="M1087.5 20.7235V4.93455C1087.5 3.84413 1088.39 2.96094 1089.5 2.96094H1097.5C1098.61 2.96094 1099.5 3.84413 1099.5 4.93455V20.7235" stroke="#8B8B8B" stroke-width="1.5" stroke-linecap="round" stroke-linejoin="round"/>
<path d="M1103.5 4.9375L1104.91 6.33285C1105.29 6.7029 1105.5 7.20518 1105.5 7.72819V17.2726C1105.5 18.0897 1104.83 18.7528 1104 18.7528V18.7528C1103.17 18.7528 1102.5 18.0897 1102.5 17.2726V15.7924C1102.5 15.2477 1102.05 14.8056 1101.5 14.8056H1099.5" stroke="#8B8B8B" stroke-width="1.5" stroke-linecap="round" stroke-linejoin="round"/>
<path d="M1105.5 11.8379H1103.63C1103.03 11.8379 1102.57 11.3178 1102.64 10.7287L1102.89 8.75507C1102.95 8.26166 1103.38 7.89062 1103.88 7.89062H1105.5" stroke="#8B8B8B" stroke-width="1.5" stroke-linecap="round" stroke-linejoin="round"/>
<path d="M1086.5 20.72H1100.5" stroke="#8B8B8B" stroke-width="1.5" stroke-linecap="round" stroke-linejoin="round"/>
<path d="M927 751.961V758.862" stroke="#8B8B8B" stroke-width="1.5" stroke-linecap="round" stroke-linejoin="round"/>
<path d="M920.998 753.711V767.749" stroke="#8B8B8B" stroke-width="1.5" stroke-linecap="round" stroke-linejoin="round"/>
<path d="M933.004 759.851V754.533C933.004 754.107 932.728 753.73 932.319 753.596L927.633 752.055C927.223 751.919 926.779 751.919 926.368 752.054L921.631 753.612C921.22 753.747 920.777 753.747 920.365 753.612L916.313 752.279C915.665 752.066 914.996 752.541 914.996 753.216V764.41C914.996 764.784 915.21 765.125 915.549 765.293L920.104 767.54C920.667 767.819 921.331 767.819 921.894 767.54L924 766.501" stroke="#8B8B8B" stroke-width="1.5" stroke-linecap="round" stroke-linejoin="round"/>
<path d="M934.004 768.738L932.141 766.898" stroke="#8B8B8B" stroke-width="1.5" stroke-linecap="round" stroke-linejoin="round"/>
<path d="M930.003 761.828C931.661 761.828 933.004 763.154 933.004 764.79C933.004 766.426 931.661 767.751 930.003 767.751C928.346 767.751 927.002 766.426 927.002 764.79C927.002 763.154 928.346 761.828 930.003 761.828" stroke="#8B8B8B" stroke-width="1.5" stroke-linecap="round" stroke-linejoin="round"/>
<path d="M927 751.969V758.869" stroke="#8B8B8B" stroke-width="1.5" stroke-linecap="round" stroke-linejoin="round"/>
<path d="M920.998 753.719V767.757" stroke="#8B8B8B" stroke-width="1.5" stroke-linecap="round" stroke-linejoin="round"/>
<path d="M933.004 759.859V754.54C933.004 754.115 932.728 753.738 932.319 753.604L927.633 752.062C927.223 751.927 926.779 751.927 926.368 752.062L921.631 753.619C921.22 753.755 920.777 753.755 920.365 753.619L916.313 752.287C915.665 752.073 914.996 752.549 914.996 753.223V764.418C914.996 764.792 915.21 765.133 915.549 765.301L920.104 767.548C920.667 767.826 921.331 767.826 921.894 767.548L924 766.508" stroke="#8B8B8B" stroke-width="1.5" stroke-linecap="round" stroke-linejoin="round"/>
<path d="M934.004 768.745L932.141 766.906" stroke="#8B8B8B" stroke-width="1.5" stroke-linecap="round" stroke-linejoin="round"/>
<path d="M930.003 761.836C931.661 761.836 933.004 763.162 933.004 764.798C933.004 766.433 931.661 767.759 930.003 767.759C928.346 767.759 927.002 766.433 927.002 764.798C927.002 763.162 928.346 761.836 930.003 761.836" stroke="#8B8B8B" stroke-width="1.5" stroke-linecap="round" stroke-linejoin="round"/>
<path d="M60.9109 672.812C60.7146 674.027 60.1291 675.148 59.2402 676.011C57.6545 677.58 55.3133 678.142 53.1743 677.468C51.0353 676.795 49.4574 674.998 49.0859 672.812" stroke="#8B8B8B" stroke-width="1.5" stroke-linecap="round" stroke-linejoin="round"/>
<path fill-rule="evenodd" clip-rule="evenodd" d="M48.9801 672.812C48.2986 672.812 47.7461 672.26 47.7461 671.578V671.578C47.7461 670.897 48.2986 670.344 48.9801 670.344H61.0181C61.6996 670.344 62.2521 670.897 62.2521 671.578V671.578C62.2521 672.26 61.6996 672.812 61.0181 672.812H48.9801Z" stroke="#8B8B8B" stroke-width="1.5" stroke-linecap="round" stroke-linejoin="round"/>
<path fill-rule="evenodd" clip-rule="evenodd" d="M52.4973 661.953H57.4994C59.157 661.953 60.5007 663.279 60.5007 664.915V670.344H49.4961V664.915C49.4961 663.279 50.8398 661.953 52.4973 661.953Z" stroke="#8B8B8B" stroke-width="1.5" stroke-linecap="round" stroke-linejoin="round"/>
<path d="M57.5297 664.915H56.5293" stroke="#8B8B8B" stroke-width="1.5" stroke-linecap="round" stroke-linejoin="round"/>
<path d="M59.0807 676.156L59.761 679.523C59.8211 679.813 59.7457 680.115 59.5556 680.345C59.3656 680.574 59.081 680.707 58.7806 680.707H51.2174C50.917 680.707 50.6324 680.574 50.4424 680.345C50.2523 680.115 50.1769 679.813 50.237 679.523L50.9173 676.156" stroke="#8B8B8B" stroke-width="1.5" stroke-linecap="round" stroke-linejoin="round"/>
<path d="M441 44.895V44.895C441 42.1704 443.239 39.9609 446 39.9609V39.9609C448.761 39.9609 451 42.1704 451 44.895V57.7235" stroke="#8B8B8B" stroke-width="1.5" stroke-linecap="round" stroke-linejoin="round"/>
<path fill-rule="evenodd" clip-rule="evenodd" d="M443.416 49.5838H438.584C437.504 49.5838 436.741 48.5398 437.083 47.5283V47.5283C437.613 45.9573 439.102 44.8984 440.78 44.8984H441.22C442.897 44.8984 444.387 45.9573 444.917 47.5283V47.5283C445.259 48.5398 444.496 49.5838 443.416 49.5838V49.5838Z" stroke="#8B8B8B" stroke-width="1.5" stroke-linecap="round" stroke-linejoin="round"/>
<path d="M441 56.7344V57.7212" stroke="#8B8B8B" stroke-width="1.5" stroke-linecap="round" stroke-linejoin="round"/>
<path d="M441 53.7759V52.7891" stroke="#8B8B8B" stroke-width="1.5" stroke-linecap="round" stroke-linejoin="round"/>
<path d="M447 56.3951L446.45 55.5761" stroke="#8B8B8B" stroke-width="1.5" stroke-linecap="round" stroke-linejoin="round"/>
<path d="M444.241 52.2948L444.791 53.1139" stroke="#8B8B8B" stroke-width="1.5" stroke-linecap="round" stroke-linejoin="round"/>
<path d="M437.761 52.2948L437.211 53.1139" stroke="#8B8B8B" stroke-width="1.5" stroke-linecap="round" stroke-linejoin="round"/>
<path d="M435.55 55.5761L435 56.3951" stroke="#8B8B8B" stroke-width="1.5" stroke-linecap="round" stroke-linejoin="round"/>
<path fill-rule="evenodd" clip-rule="evenodd" d="M18 271.814H6V269.347C6 268.53 5.328 267.867 4.5 267.867H3.5C2.672 267.867 2 268.53 2 269.347V273.788C2 274.878 2.895 275.762 4 275.762H20C21.105 275.762 22 274.878 22 273.788V269.347C22 268.53 21.328 267.867 20.5 267.867H19.5C18.672 267.867 18 268.53 18 269.347V271.814Z" stroke="#8B8B8B" stroke-width="1.5" stroke-linecap="round" stroke-linejoin="round"/>
<path d="M5 275.758V277.731" stroke="#8B8B8B" stroke-width="1.5" stroke-linecap="round" stroke-linejoin="round"/>
<path d="M19 275.758V277.731" stroke="#8B8B8B" stroke-width="1.5" stroke-linecap="round" stroke-linejoin="round"/>
<path d="M576.777 846.79H569.385" stroke="#8B8B8B" stroke-width="1.5" stroke-linecap="round" stroke-linejoin="round"/>
<ellipse cx="578.354" cy="846.048" rx="1.75073" ry="1.72763" stroke="#8B8B8B" stroke-width="1.5" stroke-linecap="round" stroke-linejoin="round"/>
<ellipse cx="567.634" cy="846.048" rx="1.75073" ry="1.72763" stroke="#8B8B8B" stroke-width="1.5" stroke-linecap="round" stroke-linejoin="round"/>
<path d="M579.933 846.791H581.17C581.91 846.79 582.538 846.257 582.65 845.535L582.985 843.378C583.148 842.37 582.503 841.405 581.499 841.156C579.998 840.804 578.457 840.648 576.915 840.692C576.018 839.918 575.025 839.258 573.96 838.729C571.743 837.632 569.132 837.632 566.915 838.729L564.663 839.843C564.346 839.998 564.016 840.128 563.678 840.231C563.271 840.363 562.996 840.74 563 841.163V845.31C563 845.703 563.157 846.079 563.438 846.357C563.718 846.634 564.099 846.791 564.497 846.791H566.055" stroke="#8B8B8B" stroke-width="1.5" stroke-linecap="round" stroke-linejoin="round"/>
<path d="M1258 770.266L1256.5 771.746" stroke="#8B8B8B" stroke-width="1.5" stroke-linecap="round" stroke-linejoin="round"/>
<path d="M1256.5 768.789L1258 770.269" stroke="#8B8B8B" stroke-width="1.5" stroke-linecap="round" stroke-linejoin="round"/>
<path d="M1258 770.266H1256C1254.34 770.266 1253 771.591 1253 773.226" stroke="#8B8B8B" stroke-width="1.5" stroke-linecap="round" stroke-linejoin="round"/>
<path d="M1266 786.058L1267.5 784.578" stroke="#8B8B8B" stroke-width="1.5" stroke-linecap="round" stroke-linejoin="round"/>
<path d="M1267.5 787.535L1266 786.055" stroke="#8B8B8B" stroke-width="1.5" stroke-linecap="round" stroke-linejoin="round"/>
<path d="M1266 786.062H1268C1269.66 786.062 1271 784.737 1271 783.102" stroke="#8B8B8B" stroke-width="1.5" stroke-linecap="round" stroke-linejoin="round"/>
<path d="M1260.15 772.391C1260.29 772.207 1260.44 772.024 1260.61 771.857C1262.75 769.746 1266.25 769.746 1268.39 771.857C1270.53 773.967 1270.53 777.421 1268.39 779.532C1268.22 779.701 1268.03 779.842 1267.84 779.979" stroke="#8B8B8B" stroke-width="1.5" stroke-linecap="round" stroke-linejoin="round"/>
<path d="M1259.5 786.058C1262.53 786.058 1265 783.616 1265 780.632C1265 777.647 1262.53 775.203 1259.5 775.203C1256.48 775.203 1254 777.645 1254 780.632C1254 781.849 1254.42 782.972 1255.11 783.88C1256.12 785.198 1257.71 786.058 1259.5 786.058" stroke="#8B8B8B" stroke-width="1.5" stroke-linecap="round" stroke-linejoin="round"/>
<path d="M1257 780.493H1259.85" stroke="#8B8B8B" stroke-width="1.5" stroke-linecap="round" stroke-linejoin="round"/>
<path d="M1260.78 782.636C1259.92 783.006 1258.88 782.854 1258.17 782.155C1257.24 781.239 1257.24 779.756 1258.17 778.84C1258.88 778.142 1259.92 777.99 1260.78 778.36" stroke="#8B8B8B" stroke-width="1.5" stroke-linecap="round" stroke-linejoin="round"/>
<path d="M1101 835.867V840.803C1101 844.075 1103.24 846.727 1106 846.727C1108.76 846.727 1111 844.075 1111 840.803C1111.15 839.014 1109.81 837.439 1108 837.267C1106.19 837.439 1104.85 839.014 1105 840.803C1105 844.075 1107.24 846.727 1110 846.727C1112.76 846.727 1115 844.075 1115 840.803V835.867" stroke="#8B8B8B" stroke-width="1.5" stroke-linecap="round" stroke-linejoin="round"/>
<path d="M1113.52 835.864V829.812C1113.52 829.338 1113.91 828.954 1114.39 828.953H1115.52C1116.08 828.953 1116.52 829.395 1116.52 829.94V835.864" stroke="#8B8B8B" stroke-width="1.5" stroke-linecap="round" stroke-linejoin="round"/>
<path d="M1117 835.861H1113" stroke="#8B8B8B" stroke-width="1.5" stroke-linecap="round" stroke-linejoin="round"/>
<path d="M1099.52 835.864V829.812C1099.52 829.338 1099.91 828.954 1100.39 828.953H1101.52C1102.07 828.953 1102.52 829.395 1102.52 829.94V835.864" stroke="#8B8B8B" stroke-width="1.5" stroke-linecap="round" stroke-linejoin="round"/>
<path d="M1103 835.861H1099" stroke="#8B8B8B" stroke-width="1.5" stroke-linecap="round" stroke-linejoin="round"/>
<path d="M940.001 66.2592H932.168" stroke="#8B8B8B" stroke-width="1.5" stroke-linecap="round" stroke-linejoin="round"/>
<path d="M942.998 66.2543H945.003C945.555 66.2543 946.003 65.8123 946.003 65.2671V59.2306C946.003 58.9795 945.954 58.7308 945.86 58.4977L944.505 55.1551C944.201 54.4055 943.465 53.9141 942.647 53.9141H939" stroke="#8B8B8B" stroke-width="1.5" stroke-linecap="round" stroke-linejoin="round"/>
<path d="M946.004 60.8239H942.502C942.226 60.8239 942.002 60.6029 942.002 60.3303V56.875H945.203" stroke="#8B8B8B" stroke-width="1.5" stroke-linecap="round" stroke-linejoin="round"/>
<path d="M942.558 65.215C942.987 65.6384 943.115 66.2754 942.883 66.8287C942.651 67.3821 942.104 67.7429 941.497 67.7429C940.89 67.743 940.343 67.3822 940.11 66.8289C939.878 66.2755 940.006 65.6386 940.436 65.2151L940.436 65.215C940.717 64.9373 941.099 64.7812 941.497 64.7812C941.895 64.7812 942.276 64.9373 942.558 65.215V65.215" stroke="#8B8B8B" stroke-width="1.5" stroke-linecap="round" stroke-linejoin="round"/>
<path d="M931.554 65.2151C931.983 65.6385 932.112 66.2755 931.879 66.8288C931.647 67.3822 931.1 67.743 930.493 67.743C929.886 67.7431 929.339 67.3823 929.106 66.829C928.874 66.2756 929.003 65.6387 929.432 65.2152L929.432 65.2149C929.713 64.9372 930.095 64.7812 930.493 64.7813C930.891 64.7813 931.273 64.9373 931.554 65.2151V65.2151" stroke="#8B8B8B" stroke-width="1.5" stroke-linecap="round" stroke-linejoin="round"/>
<path d="M928.995 66.2522H926.995C926.442 66.2522 925.994 65.8102 925.994 65.265V52.9247C925.994 52.3795 926.442 51.9375 926.995 51.9375H937.999C938.552 51.9375 939 52.3795 939 52.9247V61.8097" stroke="#8B8B8B" stroke-width="1.5" stroke-linecap="round" stroke-linejoin="round"/>
<path d="M939 61.8139H925.994" stroke="#8B8B8B" stroke-width="1.5" stroke-linecap="round" stroke-linejoin="round"/>
<path d="M1280 28.9531V31.6907C1280 31.7776 1279.95 31.8585 1279.88 31.9026C1279.8 31.9467 1279.71 31.9472 1279.63 31.9039C1278.9 31.4916 1277.97 31.6557 1277.43 32.2935C1276.89 32.9314 1276.89 33.8598 1277.43 34.4977C1277.97 35.1355 1278.9 35.2997 1279.63 34.8873C1279.71 34.844 1279.8 34.8445 1279.88 34.8886C1279.95 34.9327 1280 35.0136 1280 35.1005V37.8381H1282.77C1282.86 37.8394 1282.94 37.7939 1282.99 37.7189C1283.03 37.644 1283.03 37.5512 1282.99 37.4758C1282.57 36.7537 1282.74 35.8399 1283.38 35.3064C1284.03 34.7728 1284.97 34.7728 1285.62 35.3064C1286.26 35.8399 1286.43 36.7537 1286.01 37.4758C1285.97 37.5512 1285.97 37.644 1286.01 37.7189C1286.06 37.7939 1286.14 37.8394 1286.23 37.8381H1289" stroke="#8B8B8B" stroke-width="1.5" stroke-linecap="round" stroke-linejoin="round"/>
<path d="M1280 46.721V43.9834C1280 43.8965 1280.04 43.8155 1280.12 43.7714C1280.2 43.7273 1280.29 43.7269 1280.37 43.7702C1281.1 44.1825 1282.02 44.0184 1282.57 43.3805C1283.11 42.7427 1283.11 41.8143 1282.57 41.1764C1282.02 40.5385 1281.1 40.3744 1280.37 40.7868C1280.29 40.8301 1280.2 40.8296 1280.12 40.7855C1280.04 40.7414 1280 40.6605 1280 40.5735V37.836H1277.23C1277.14 37.8347 1277.06 37.8802 1277.01 37.9551C1276.97 38.0301 1276.97 38.1229 1277.01 38.1983C1277.43 38.9204 1277.26 39.8342 1276.61 40.3677C1275.97 40.9012 1275.03 40.9012 1274.38 40.3677C1273.73 39.8342 1273.57 38.9204 1273.99 38.1983C1274.03 38.1229 1274.03 38.0301 1273.99 37.9551C1273.94 37.8802 1273.86 37.8347 1273.77 37.836H1271" stroke="#8B8B8B" stroke-width="1.5" stroke-linecap="round" stroke-linejoin="round"/>
<rect x="1271" y="28.9531" width="18.0075" height="17.7699" rx="4.034" stroke="#8B8B8B" stroke-width="1.5" stroke-linecap="round" stroke-linejoin="round"/>
<g opacity="0.7">
<path d="M305.457 13.1719L307.764 17.0862C308.085 17.6355 308.084 18.3125 307.761 18.8607C307.437 19.409 306.842 19.7447 306.199 19.7409H300.553L302.618 17.718" stroke="#8B8B8B" stroke-width="1.5" stroke-linecap="round" stroke-linejoin="round"/>
<path d="M295.133 8.79888L297.44 4.88456C297.765 4.33663 298.361 4 299.004 4C299.648 4 300.244 4.33663 300.569 4.88456L303.392 9.6775L300.571 8.93709" stroke="#8B8B8B" stroke-width="1.5" stroke-linecap="round" stroke-linejoin="round"/>
<path d="M293.825 15.0611L293.069 12.2969L290.246 17.0878C289.925 17.6372 289.926 18.3141 290.249 18.8624C290.572 19.4106 291.168 19.7463 291.811 19.7425H296.424" stroke="#8B8B8B" stroke-width="1.5" stroke-linecap="round" stroke-linejoin="round"/>
</g>
<path d="M807.545 856.786C808.34 856.786 808.985 856.15 808.985 855.366C808.985 854.581 808.34 853.945 807.545 853.945C806.75 853.945 806.105 854.581 806.105 855.366C806.105 856.15 806.75 856.786 807.545 856.786Z" stroke="#8B8B8B" stroke-width="1.5" stroke-miterlimit="10" stroke-linecap="round" stroke-linejoin="round"/>
<path d="M813.985 868.373L813 864.485C812.773 863.737 812.091 863.139 811.334 863.139H808.455V858.878C808.455 858.504 808.151 858.055 807.773 857.98C807.394 857.906 807.091 858.055 806.863 858.279C806.712 858.504 806.56 858.728 806.333 858.803L804.818 859.924C804.515 860.149 804.363 860.522 804.363 860.821V863.139C804.363 863.438 804.591 863.737 804.969 863.737C805.272 863.737 805.576 863.513 805.576 863.139V860.821L806.712 860.223V863.662C806.712 864.261 807.242 864.784 807.848 864.784H811.334L812.319 868.746C812.394 869.195 812.849 869.494 813.379 869.345C813.834 869.345 814.061 868.821 813.985 868.373Z" stroke="#8B8B8B" stroke-width="1.5" stroke-miterlimit="10" stroke-linecap="round" stroke-linejoin="round"/>
<path d="M811.94 867.556C811.107 869.051 809.516 870.023 807.697 870.023C805.121 870.023 803 867.93 803 865.313C803 864.042 803.53 862.846 804.364 862.023" stroke="#8B8B8B" stroke-width="1.5" stroke-miterlimit="10" stroke-linecap="round" stroke-linejoin="round"/>
<ellipse cx="150.999" cy="813.839" rx="6.50271" ry="6.41692" stroke="#8B8B8B" stroke-width="1.5" stroke-linecap="round" stroke-linejoin="round"/>
<path d="M143.858 806.93C140.042 810.767 140.042 816.913 143.858 820.751" stroke="#8B8B8B" stroke-width="1.5" stroke-linecap="round" stroke-linejoin="round"/>
<path d="M158.139 806.93C161.955 810.767 161.955 816.913 158.139 820.751" stroke="#8B8B8B" stroke-width="1.5" stroke-linecap="round" stroke-linejoin="round"/>
<path d="M149.939 816.433V811.25H151.499C152.328 811.25 153 811.913 153 812.731V812.731C153 813.549 152.328 814.212 151.499 814.212H149.939" stroke="#8B8B8B" stroke-width="1.5" stroke-linecap="round" stroke-linejoin="round"/>
<path fill-rule="evenodd" clip-rule="evenodd" d="M368.773 830.734C367.794 830.734 367 829.95 367 828.984C367 828.018 367.794 827.234 368.773 827.234C369.752 827.234 370.546 828.018 370.546 828.984C370.546 829.95 369.752 830.734 368.773 830.734Z" stroke="#8B8B8B" stroke-width="1.5" stroke-linecap="round" stroke-linejoin="round"/>
<path d="M367 823.742C371.609 823.058 374.783 826.191 374.091 830.74" stroke="#8B8B8B" stroke-width="1.5" stroke-linecap="round" stroke-linejoin="round"/>
<path d="M367 819.366C374.056 818.682 379.215 823.773 378.522 830.736" stroke="#8B8B8B" stroke-width="1.5" stroke-linecap="round" stroke-linejoin="round"/>
<path d="M367 814.991C376.504 814.308 383.646 821.356 382.954 830.735" stroke="#8B8B8B" stroke-width="1.5" stroke-linecap="round" stroke-linejoin="round"/>
<path d="M12.9746 568.236H21.4999" stroke="#8B8B8B" stroke-width="1.5" stroke-linecap="round" stroke-linejoin="round"/>
<ellipse cx="23.0006" cy="568.254" rx="1.50063" ry="1.48083" stroke="#8B8B8B" stroke-width="1.5" stroke-linecap="round" stroke-linejoin="round"/>
<ellipse cx="11.4752" cy="568.254" rx="1.50063" ry="1.48083" stroke="#8B8B8B" stroke-width="1.5" stroke-linecap="round" stroke-linejoin="round"/>
<path d="M7.99414 561.837H27.7912" stroke="#8B8B8B" stroke-width="1.5" stroke-linecap="round" stroke-linejoin="round"/>
<path d="M21.0002 561.837V555.914" stroke="#8B8B8B" stroke-width="1.5" stroke-linecap="round" stroke-linejoin="round"/>
<path d="M13.9983 561.837V555.914" stroke="#8B8B8B" stroke-width="1.5" stroke-linecap="round" stroke-linejoin="round"/>
<path d="M28.0028 564.798H26.002" stroke="#8B8B8B" stroke-width="1.5" stroke-linecap="round" stroke-linejoin="round"/>
<path d="M9.97322 568.254H8.86407C8.38362 568.254 7.99414 567.87 7.99414 567.396V557.631C7.99414 556.683 8.7731 555.914 9.734 555.914H23.7785C25.0992 555.914 26.2646 556.766 26.6495 558.013L27.8722 561.973C27.9586 562.253 28.0025 562.544 28.0025 562.836V566.258C28.0025 567.349 27.1067 568.233 26.0016 568.233H24.501" stroke="#8B8B8B" stroke-width="1.5" stroke-linecap="round" stroke-linejoin="round"/>
</g>
</svg>
